<svg width="222" height="44" viewBox="0 0 222 44" fill="none" xmlns="http://www.w3.org/2000/svg">
<g clip-path="url(#clip0_409_2)">
<path d="M147.3 37.4249C150.236 37.4879 153.077 36.3838 155.2 34.3549L159.12 38.5749C156.53 41.2349 152.95 43.2049 147.37 43.2049C137.81 43.2049 131.64 36.8649 131.64 28.2849C131.601 26.3619 131.942 24.4502 132.643 22.6592C133.345 20.8681 134.392 19.233 135.726 17.8472C137.06 16.4614 138.654 15.3522 140.416 14.5831C142.179 13.8139 144.077 13.4 146 13.3649H146.53C156.02 13.3649 161.4 20.5849 160.93 30.6049H138.47C139.27 34.7649 142.19 37.4149 147.3 37.4149M154.14 25.7949C153.54 21.9149 151.22 19.0549 146.57 19.0549C144.616 18.9408 142.693 19.5736 141.189 20.8252C139.684 22.0767 138.712 23.8533 138.47 25.7949H154.14Z" fill="white"/>
<path d="M0 37.1149L17.27 19.5749H0.41V14.0649H25.27V19.6849L8 37.2249H25.5V42.7249H0V37.1149Z" fill="white"/>
<path d="M44.8895 37.4249C47.8254 37.4879 50.6665 36.3838 52.7895 34.3549L56.7095 38.5749C54.1195 41.2349 50.5395 43.2049 44.9595 43.2049C35.3995 43.2049 29.2295 36.8649 29.2295 28.2849C29.191 26.3635 29.5315 24.4534 30.2314 22.6637C30.9313 20.874 31.9769 19.2397 33.3086 17.8541C34.6403 16.4686 36.2319 15.359 37.9924 14.5887C39.753 13.8184 41.6481 13.4026 43.5695 13.3649H44.0995C53.5895 13.3649 58.9695 20.5849 58.4995 30.6049H36.0595C36.8595 34.7649 39.7795 37.4149 44.8895 37.4149M51.7295 25.7949C51.1295 21.9149 48.8095 19.0549 44.1595 19.0549C42.2061 18.9408 40.2825 19.5736 38.7784 20.8252C37.2743 22.0767 36.3023 23.8533 36.0595 25.7949H51.7295Z" fill="white"/>
<path d="M95.7682 28.3149C95.7682 19.1449 102.618 13.4149 110.158 13.4149C111.967 13.3915 113.76 13.7643 115.41 14.5072C117.059 15.25 118.527 16.3449 119.708 17.7149V0.794922H125.808V42.6449H119.708V38.6449C118.549 40.0724 117.083 41.2208 115.419 42.005C113.756 42.7891 111.937 43.189 110.098 43.1749C108.201 43.1605 106.324 42.7725 104.577 42.033C102.829 41.2935 101.244 40.217 99.9126 38.865C98.581 37.5129 97.5288 35.9118 96.816 34.1531C96.1032 32.3944 95.7437 30.5125 95.7582 28.6149C95.7582 28.4949 95.7582 28.3849 95.7582 28.2749M120.048 28.2149C120.01 25.7878 119.014 23.4741 117.277 21.7781C115.541 20.0821 113.204 19.1411 110.777 19.1602C108.35 19.1793 106.028 20.157 104.318 21.8802C102.609 23.6034 101.649 25.9325 101.649 28.3599C101.649 30.7874 102.609 33.1164 104.318 34.8396C106.028 36.5628 108.35 37.5405 110.777 37.5596C113.204 37.5788 115.541 36.6378 117.277 34.9417C119.014 33.2457 120.01 30.9321 120.048 28.5049V28.2149Z" fill="white"/>
<path d="M164.881 36.5649L170.401 33.6949C171.133 34.9959 172.207 36.0726 173.505 36.8091C174.804 37.5456 176.279 37.9141 177.771 37.8749C181.221 37.8749 183.011 36.1049 183.011 34.0949C183.011 31.8049 179.671 31.2849 176.011 30.5449C171.121 29.5449 166.011 27.9049 166.011 22.0049C166.011 17.4749 170.321 13.2949 177.121 13.3449C182.471 13.3449 186.441 15.4649 188.691 18.9049L183.641 21.7149C182.933 20.6663 181.969 19.8157 180.84 19.2436C179.711 18.6714 178.456 18.3965 177.191 18.4449C173.911 18.4449 172.241 20.0549 172.241 21.8849C172.241 23.9449 174.891 24.5249 179.031 25.4349C183.751 26.4349 189.101 28.0149 189.101 33.9749C189.101 37.9749 185.651 43.2649 177.471 43.2049C171.471 43.2049 167.281 40.7949 164.871 36.5549" fill="white"/>
<path d="M205.678 29.9149L200.838 35.1849V42.6449H194.738V0.794922H200.838V28.1949L213.788 13.9749H221.218L209.988 26.2449L221.498 42.6449H214.598L205.678 29.9149Z" fill="white"/>
<path d="M77.3317 13.4049C70.0817 13.4049 64.0117 18.1049 64.0117 25.9049V42.6449H70.2317V26.6449C70.2317 21.9449 72.9317 19.1349 77.5417 19.1349C82.1517 19.1349 84.4517 21.9449 84.4517 26.6449V42.6449H90.6417V25.8949C90.6417 18.0949 84.5717 13.3949 77.3217 13.3949" fill="white"/>
</g>
<defs>
<clipPath id="clip0_409_2">
<rect width="221.5" height="42.41" fill="white" transform="translate(0 0.794922)"/>
</clipPath>
</defs>
</svg>
