<svg width="448" height="80" viewBox="0 0 448 80" fill="none" xmlns="http://www.w3.org/2000/svg">
<g clip-path="url(#clip0_409_29)">
<path fill-rule="evenodd" clip-rule="evenodd" d="M38.6471 55.0743L51.1195 67.0517L40.7149 77.4671C37.341 80.8444 31.8697 80.8444 28.4958 77.4671L2.53044 51.4757C-0.84348 48.0974 -0.84348 42.6217 2.53044 39.2444C5.90544 35.8671 11.3756 35.8671 14.7496 39.2444L34.6054 59.1201L38.6471 55.0743ZM41.8892 51.8289L52.9362 40.7709L65.1542 53.0022L54.9821 63.185L41.8892 51.8289Z" fill="white"/>
<path fill-rule="evenodd" clip-rule="evenodd" d="M91.8736 62.9553L78.8548 51.5244L109.448 20.9002C112.822 17.5229 118.292 17.5229 121.667 20.9002C125.041 24.2775 125.041 29.7531 121.667 33.1315L91.8736 62.9553ZM87.8248 67.0081L77.3767 77.4667C74.0017 80.844 68.5315 80.844 65.1576 77.4667L20.8625 33.1272C17.4885 29.7488 17.4885 24.2731 20.8625 20.8958C24.2364 17.5175 29.7066 17.5175 33.0816 20.8958L71.2671 59.1196L75.562 54.8205L87.8248 67.0081Z" fill="white"/>
<path fill-rule="evenodd" clip-rule="evenodd" d="M73.0986 48.7198L85.2598 36.4316L107.925 59.1196L127.777 39.2482C131.152 35.8709 136.622 35.8709 139.996 39.2482C143.37 42.6266 143.37 48.1023 139.996 51.4796L114.035 77.4666C110.661 80.8439 105.191 80.8439 101.817 77.4666L73.0986 48.7198ZM68.0605 43.6767L39.1906 14.778C35.8167 11.4007 35.8167 5.925 39.1906 2.5477C42.5656 -0.830678 48.0358 -0.830678 51.4098 2.5477L80.3096 31.4764L68.0605 43.6767Z" fill="white"/>
<path fill-rule="evenodd" clip-rule="evenodd" d="M103.334 2.55177C99.9601 -0.825525 94.4899 -0.825525 91.1149 2.55177L52.9336 40.7712L65.1528 53.0026L103.334 14.7831C106.708 11.4047 106.708 5.92907 103.334 2.55177Z" fill="white"/>
<path fill-rule="evenodd" clip-rule="evenodd" d="M187.254 8.52481H176.629V70.9998H215.559V61.5648H187.254V8.52481ZM238.554 27.3098C245.014 27.3098 249.349 29.9448 251.729 33.1748L252.239 28.1598H261.419V70.9998H252.239L251.729 65.9848C249.349 69.2148 245.014 71.8498 238.554 71.8498C226.909 71.8498 219.004 62.4148 219.004 49.5798C219.004 36.6598 226.909 27.3098 238.554 27.3098ZM240.764 36.3198C234.134 36.3198 229.374 41.5048 229.374 49.5798C229.374 57.6548 234.134 62.8398 240.764 62.8398C245.864 62.8398 248.924 60.1198 251.219 56.4648V42.6948C248.924 39.0398 245.864 36.3198 240.764 36.3198ZM287.134 13.7948H276.934V28.1598H268.859V36.8298H276.934V55.8698C276.934 66.2398 283.139 71.8498 292.914 71.8498C297.164 71.8498 300.309 70.6598 302.434 69.2998L299.714 61.3098C298.439 62.0748 296.569 62.6698 293.849 62.6698C289.854 62.6698 287.134 60.1198 287.134 55.7848V36.8298H300.054V28.1598H287.134V13.7948ZM322.284 13.7948H312.084V28.1598H304.009V36.8298H312.084V55.8698C312.084 66.2398 318.289 71.8498 328.064 71.8498C332.314 71.8498 335.459 70.6598 337.584 69.2998L334.864 61.3098C333.589 62.0748 331.719 62.6698 328.999 62.6698C325.004 62.6698 322.284 60.1198 322.284 55.7848V36.8298H335.204V28.1598H322.284V13.7948ZM354.629 28.1598H344.429V70.9998H354.629V28.1598ZM349.529 8.18481C345.959 8.18481 343.239 10.8198 343.239 14.4748C343.239 18.1298 345.959 20.7648 349.529 20.7648C353.184 20.7648 355.904 18.1298 355.904 14.4748C355.904 10.8198 353.184 8.18481 349.529 8.18481ZM385.444 27.3098C372.269 27.3098 363.514 36.6598 363.514 49.5798C363.514 62.4148 372.354 71.8498 385.529 71.8498C393.264 71.8498 399.129 68.3648 402.954 62.4148L395.644 56.7198C393.604 60.1198 390.289 62.9248 385.614 62.9248C378.049 62.9248 373.884 57.0598 373.884 49.5798C373.884 42.0148 377.879 36.2348 385.529 36.2348C390.289 36.2348 393.434 38.9548 395.389 42.3548L402.784 36.7448C398.959 30.7948 393.264 27.3098 385.444 27.3098ZM427.904 27.3098C441.079 27.3098 447.539 37.1698 447.539 49.1548V52.7248H417.279C417.534 59.5248 421.614 63.2648 428.754 63.2648C433.769 63.2648 437.424 61.0548 439.379 58.3348L446.434 64.1148C442.184 69.2148 436.574 71.8498 428.669 71.8498C415.409 71.8498 406.909 62.4998 406.909 49.6648C406.909 36.7448 415.579 27.3098 427.904 27.3098ZM427.734 35.4698C421.699 35.4698 417.619 39.4648 417.279 45.4148H437.509C437.254 39.5498 433.854 35.4698 427.734 35.4698Z" fill="white"/>
</g>
<defs>
<clipPath id="clip0_409_29">
<rect width="448" height="80" fill="white"/>
</clipPath>
</defs>
</svg>
