<svg width="109" height="34" viewBox="0 0 109 34" fill="none" xmlns="http://www.w3.org/2000/svg">
<g clip-path="url(#clip0_409_26)">
<path d="M70.5784 8.11498C68.827 8.09912 67.1104 8.6045 65.647 9.56684C64.1835 10.5292 63.0394 11.905 62.3599 13.5194C61.6805 15.1337 61.4965 16.9137 61.8314 18.6328C62.1663 20.352 63.0049 21.9328 64.2405 23.1741C65.4762 24.4154 67.0531 25.2612 68.7708 25.6039C70.4884 25.9466 72.2692 25.7708 73.8866 25.0987C75.5041 24.4267 76.8851 23.2888 77.8541 21.8297C78.8231 20.3707 79.3363 18.6565 79.3284 16.905C79.3311 15.7533 79.1068 14.6123 78.6685 13.5473C78.2302 12.4823 77.5864 11.514 76.7739 10.6978C75.9614 9.88156 74.9961 9.23336 73.9331 8.7902C72.87 8.34704 71.7301 8.1176 70.5784 8.11498ZM70.6484 22.165C69.9722 22.1737 69.3009 22.0473 68.6742 21.7931C68.0474 21.539 67.4777 21.1622 66.9984 20.685C66.3995 20.0927 65.9559 19.3617 65.707 18.5569C65.4581 17.7522 65.4117 16.8984 65.5718 16.0714C65.7319 15.2443 66.0935 14.4696 66.6247 13.8158C67.1559 13.162 67.8402 12.6494 68.6169 12.3233C69.3937 11.9973 70.2389 11.868 71.0776 11.9468C71.9162 12.0256 72.7225 12.3102 73.4249 12.7752C74.1273 13.2402 74.7041 13.8714 75.1042 14.6127C75.5043 15.354 75.7152 16.1826 75.7184 17.025C75.6884 18.3702 75.144 19.6528 74.1973 20.6088C73.2505 21.5649 71.9733 22.1218 70.6284 22.165H70.6484ZM89.9984 12.275C89.4044 12.2828 88.8179 12.4079 88.2723 12.643C87.7268 12.8782 87.2332 13.2188 86.8197 13.6453C86.4062 14.0718 86.081 14.5758 85.8629 15.1283C85.6447 15.6808 85.5378 16.271 85.5484 16.865V25.255H81.7384L81.6884 8.60498H85.4984V11.215C86.0444 10.4174 86.773 9.7617 87.6236 9.30251C88.4741 8.84332 89.422 8.59389 90.3884 8.57498H91.4984V12.275H89.9984ZM51.9984 8.75498L54.8484 20.175L57.8484 8.72498H61.6584L56.9484 25.425H53.2484L50.2484 13.785L47.3584 25.475H43.6484L38.6484 8.83498H42.3584L45.6984 20.225L48.3684 8.77498L51.9984 8.75498ZM102.668 16.135C104.006 15.3534 105.115 14.2348 105.886 12.8907C106.656 11.5467 107.06 10.0241 107.058 8.47498H103.248C103.264 9.81888 102.747 11.1144 101.81 12.0778C100.873 13.0412 99.5923 13.5939 98.2484 13.615H97.6984L97.6584 0.474976H93.8484L93.9984 25.215H97.8084V17.375H98.2484C98.4502 17.3528 98.654 17.3927 98.8326 17.4891C99.0112 17.5856 99.1563 17.7341 99.2484 17.915L104.618 25.185H109.078L102.668 16.135Z" fill="white"/>
<path d="M29.85 8.31498C25.71 8.31498 22.57 11.065 21.39 15.425C19.5042 12.489 18.0273 9.30976 17 5.97498H12.65V17.515C12.65 18.613 12.2138 19.666 11.4374 20.4424C10.661 21.2188 9.608 21.655 8.51 21.655C7.412 21.655 6.35898 21.2188 5.58258 20.4424C4.80618 19.666 4.37 18.613 4.37 17.515V5.97498L0 6.05498L0.05 17.595C0.0460515 18.719 0.264031 19.8327 0.691438 20.8723C1.11885 21.9119 1.74727 22.8569 2.54068 23.6531C3.33408 24.4493 4.27686 25.081 5.31494 25.512C6.35302 25.9431 7.46598 26.165 8.59 26.165C9.71363 26.1494 10.8231 25.9119 11.8547 25.4662C12.8862 25.0205 13.8196 24.3754 14.6011 23.5679C15.3826 22.7604 15.9968 21.8064 16.4085 20.7608C16.8202 19.7152 17.0212 18.5985 17 17.475V15.475C17.9147 17.2984 18.9818 19.0413 20.19 20.685L17.55 33.525L22 33.475L23.92 24.205C25.712 25.3456 27.7959 25.943 29.92 25.925C32.2092 25.8382 34.3752 24.8651 35.9603 23.2113C37.5455 21.5574 38.4259 19.3521 38.4155 17.0613C38.4051 14.7704 37.5048 12.5733 35.9047 10.9338C34.3046 9.29437 32.1299 8.34098 29.84 8.27498L29.85 8.31498ZM29.91 21.475C28.0976 21.4273 26.3597 20.7442 25 19.545L25.43 17.805V17.705C25.75 15.855 26.71 12.705 29.98 12.705C31.1338 12.7023 32.2419 13.156 33.0625 13.9672C33.883 14.7784 34.3494 15.8812 34.36 17.035C34.3107 18.1984 33.8258 19.3009 33.0014 20.1234C32.1771 20.9459 31.0736 21.4283 29.91 21.475Z" fill="white"/>
</g>
<defs>
<clipPath id="clip0_409_26">
<rect width="108.99" height="33.05" fill="white" transform="translate(0 0.474976)"/>
</clipPath>
</defs>
</svg>
