<svg width="328" height="116" viewBox="0 0 328 116" fill="none" xmlns="http://www.w3.org/2000/svg">
<g clip-path="url(#clip0_409_12)">
<path fill-rule="evenodd" clip-rule="evenodd" d="M54.86 34C54.8547 29.7962 53.1817 25.7663 50.2083 22.7947C47.2348 19.8231 43.2038 18.1526 39 18.15H18.09V50.06H39C41.1008 50.0642 43.1815 49.6502 45.1207 48.8421C47.0599 48.034 48.8189 46.848 50.2951 45.3532C51.7713 43.8584 52.9352 42.0847 53.7189 40.1355C54.5026 38.1863 54.8905 36.1006 54.86 34ZM39 0C48.0253 1.34488e-07 56.681 3.58529 63.0628 9.96716C69.4447 16.349 73.03 25.0047 73.03 34.03C73.03 43.0553 69.4447 51.711 63.0628 58.0928C56.681 64.4747 48.0253 68.06 39 68.06H18.09V114.79H0V0H39ZM91.6 66.85H132.42C131.249 62.3315 128.605 58.3321 124.907 55.4835C121.209 52.6349 116.668 51.0996 112 51.12C102 51.12 93.8 57.5 91.55 66.85H91.6ZM112.18 35.09C135.58 35.09 151.92 53.72 151.92 80.38V81.82H91.55C94.76 91.82 103.43 98.46 113.64 98.46C124.28 98.46 132.31 91.76 135.26 88.88L136.38 87.8L147.25 101.06L146.31 101.98C137.15 110.98 125.5 115.98 113.49 115.98C90.49 115.98 72.54 97.75 72.54 74.47C72.4983 69.2692 73.4954 64.1124 75.4728 59.3019C77.4502 54.4915 80.3682 50.1244 84.0556 46.4565C87.7431 42.7886 92.1257 39.8939 96.9466 37.9421C101.767 35.9903 106.929 35.0206 112.13 35.09H112.18ZM181.48 12.25V36.25H206.21V52.48H181.43V86.48C181.413 87.8231 181.664 89.1561 182.169 90.4007C182.674 91.6453 183.423 92.7765 184.371 93.7276C185.319 94.6788 186.448 95.4309 187.691 95.9396C188.935 96.4483 190.267 96.7034 191.61 96.69H205.86V114.84H191.31C174.31 114.84 163.31 103.65 163.31 86.33V12.33L181.48 12.25ZM275.74 75.39C275.699 70.9985 274.358 66.7176 271.889 63.0863C269.419 59.455 265.929 56.6359 261.86 54.984C257.791 53.3321 253.324 52.9213 249.022 53.8034C244.72 54.6855 240.775 56.821 237.684 59.9409C234.593 63.0609 232.495 67.0257 231.653 71.3359C230.812 75.6461 231.264 80.1091 232.955 84.1625C234.645 88.2159 237.496 91.6786 241.151 94.1143C244.805 96.55 249.098 97.8498 253.49 97.85C256.423 97.8356 259.325 97.2429 262.029 96.1059C264.733 94.9689 267.186 93.3099 269.248 91.2237C271.31 89.1376 272.94 86.6653 274.045 83.9484C275.151 81.2314 275.71 78.3232 275.69 75.39H275.74ZM277.74 44V36.3H293.58V114.79H277.8V107.09C270.947 112.877 262.259 116.035 253.29 116C247.924 116.084 242.595 115.1 237.612 113.105C232.63 111.11 228.095 108.144 224.27 104.379C220.446 100.614 217.408 96.1253 215.335 91.1752C213.262 86.225 212.194 80.9118 212.194 75.545C212.194 70.1782 213.262 64.865 215.335 59.9148C217.408 54.9647 220.446 50.4764 224.27 46.7115C228.095 42.9465 232.63 39.9801 237.612 37.9849C242.595 35.9897 247.924 35.0056 253.29 35.09C262.201 35.1254 270.819 38.2775 277.65 44H277.74ZM310 114.79V6.05H328V114.79H310Z" fill="white"/>
</g>
<defs>
<clipPath id="clip0_409_12">
<rect width="328" height="116" fill="white"/>
</clipPath>
</defs>
</svg>
