<svg width="452" height="68" viewBox="0 0 452 68" fill="none" xmlns="http://www.w3.org/2000/svg">
<g clip-path="url(#clip0_409_35)">
<path d="M70.4 1.10002L33.6 50.7L0 1.20002C1.8 0.300016 67.2 0.100016 70.4 1.10002ZM21.3 12.2L34 31L47.9 12.2H21.3Z" fill="white"/>
<path d="M246.801 34C246.501 22.2 254.701 10.7 270.001 10.8C285.301 10.9 292.801 21.9 292.701 34.2C292.701 47.5 282.901 57.3 269.501 57.3C256.101 57.3 246.801 47.7 246.801 34ZM281.001 33.9C281.001 33 281.001 32 280.901 31.1C280.501 26.1 276.801 21.9 271.901 20.8C267.301 19.9 262.701 22 260.401 26C257.501 30.9 257.501 37.1 260.401 42C263.301 47.2 269.901 49 275.101 46.1C276.601 45.3 277.801 44.1 278.701 42.8C280.401 40.1 281.201 37 281.001 33.9Z" fill="white"/>
<path d="M450.3 57.5C441.3 50 432.8 41.7 423.4 33.7V56.2H412.8C412.7 55.3 412.6 54.4 412.5 53.4C412.5 40.3 412.5 27.1 412.5 14C412.7 12.9 413 11.9 413.5 10.9C414.5 11.3 415.5 11.8 416.4 12.5C423.7 19 430.9 25.6 438.2 32.2C438.7 32.7 439.4 33.1 440.4 33.9V11.8H451V56.9L450.3 57.5Z" fill="white"/>
<path d="M391.501 40.2H383.001V31.3H401.601C401.801 31.9 401.901 32.5 401.901 33C401.901 39 402.001 45 401.901 51C401.901 51.9 401.401 52.7 400.701 53.3C392.501 58.1 380.001 59.2 371.401 53.4C363.801 48.3 360.601 40.9 361.401 31.9C362.201 22.3 367.401 15.5 376.601 12.3C384.201 9.6 391.701 10.6 399.001 13.9C399.601 14.2 400.101 14.6 400.601 15L396.301 23.2C393.901 22.4 391.401 21.7 388.901 21.2C383.501 20.4 378.401 21.2 375.001 26.2C372.101 30.4 372.101 37.6 375.001 41.9C377.901 46.2 383.201 48.4 388.901 47.2C390.601 46.9 391.801 46.1 391.601 44.1C391.401 43 391.501 41.8 391.501 40.2Z" fill="white"/>
<path d="M85.3984 11.8H95.8984V28.6H112.498V11.8H123.198V56.2001H112.598V38.9H95.9984V56.2001H85.3984V11.8Z" fill="white"/>
<path d="M135.801 11.7001H164.101V21.4001H146.601V28.8001H162.501V38.1001H146.601V46.4001H164.201V56.2001H135.801V11.7001Z" fill="white"/>
<path d="M329.798 14.6L327.198 24L324.098 22.4C321.698 21 318.898 20.3 316.098 20.5C314.398 20.7 312.798 21.2 312.398 23.1C311.998 25 312.998 26.3 314.598 27.1C316.198 27.9 318.098 28.8 319.798 29.6C320.998 30.2 322.198 30.7 323.398 31.3C329.398 34.8 331.598 38.9 330.498 45.6C329.498 51.5 325.698 55 319.998 56.5C312.598 58.4 305.998 56.2 299.398 52.6L302.398 42.8C303.398 43.3 304.098 43.7 304.798 44.1C308.098 46.1 311.898 47 315.698 47C317.498 46.9 318.998 46.3 319.498 44.5C320.098 42.8 319.398 40.9 317.798 40.1C315.798 38.9 313.598 38.1 311.598 37C309.698 36.1 307.898 35 306.198 33.9C299.998 29.6 299.198 18.3 307.398 13.4C313.398 9.70002 323.598 10.1 329.798 14.6Z" fill="white"/>
<path d="M186.398 46.6001H204.298V56.3H175.898V11.8H186.398V46.6001Z" fill="white"/>
<path d="M223.6 46.5H241.1V56.2001H213V11.8H223.6V46.5Z" fill="white"/>
<path d="M59.9992 56.2001V66.9001C58.1992 67.7001 13.6992 67.9001 10.6992 67.1001V56.2001H59.9992Z" fill="white"/>
<path d="M351.398 11.8V56.2001H340.898V11.8H351.398Z" fill="white"/>
</g>
<defs>
<clipPath id="clip0_409_35">
<rect width="451.1" height="67.2" fill="white" transform="translate(0 0.400024)"/>
</clipPath>
</defs>
</svg>
