<svg width="400" height="400" viewBox="0 0 400 400" fill="none" xmlns="http://www.w3.org/2000/svg">
<path d="M356.507 232.595L356.475 232.645L356.571 232.669L356.507 232.595Z" fill="white"/>
<path d="M356.216 232.267L356.507 232.6C356.635 232.381 356.568 232.267 356.216 232.267Z" fill="white"/>
<path d="M47.256 142.632C48.3733 143.301 49.4667 143.965 50.328 144.259L47.256 142.632Z" fill="white"/>
<path d="M47.256 142.632C46.2696 142 45.2322 141.451 44.1547 140.992L47.256 142.632Z" fill="white"/>
<path d="M56.5013 133.728C56.672 134.099 58.368 137.557 58.4987 137.728L56.5013 133.728Z" fill="white"/>
<path d="M67.032 137.179C67.36 136.451 68.7547 133.869 68.848 133.179L67.032 137.179Z" fill="white"/>
<path d="M74.2267 144.043L77.7467 141.909C77.2533 142.133 75.3413 143.349 74.2267 144.043Z" fill="white"/>
<path d="M367.165 212.909C373.152 212.76 379.261 212.643 383.875 211.843L367.165 212.909Z" fill="white"/>
<path d="M42.1573 311.701C47.32 316.235 54.7653 323.808 61.3307 327.829C64.8347 329.963 64.856 331.563 66.7893 329.336C68.5813 327.272 70.5227 326.387 69.1013 325.728C70.52 325.853 80.384 311.968 80.3973 311.899C80.8747 309.325 78.8107 308.763 76.5707 308.699C78.4269 307.473 80.2079 306.138 81.904 304.699C84.9173 306.883 87.6507 308.237 89.128 307.632C94.744 305.323 127.421 280.248 147.843 266.032C148.552 271.344 149.285 275.083 149.907 275.083C160.291 275.083 168.243 274.648 176.691 274.264C187.397 288.453 199.539 297.013 246.435 312.541C246.435 312.541 246.877 311.664 247.768 309.968C249.752 310.923 252.403 311.963 254.384 311.885C252.677 312.291 251.083 311.152 250.48 312.024C250.152 312.496 250.147 315.323 250.147 317.403C250.147 318.469 249.053 325.459 248.547 326.037C247.941 326.712 247.008 327.035 244.813 328.624C243.771 329.376 241.8 329.821 241.408 331.699C241.259 332.413 240.608 334.099 240.771 334.923C240.013 336.144 239.059 340.739 243.328 340.555C249.237 340.288 258.613 342.987 262.984 338.379C269.288 331.736 270.075 328.339 274.349 320.824C275.648 318.541 280.216 310.115 275.981 309.208C274.605 308.915 274.531 308.011 273.123 308.507C272.779 307.584 271.523 306.84 269.085 305.339C265.232 302.957 256.819 296.88 257.304 302.672C255.891 301.819 254.43 301.047 252.928 300.36C253.376 299.539 253.847 298.68 254.341 297.784C252.821 295.821 234.875 286.467 221.864 273.496L272.445 273.075C270.728 267.573 249.963 229.632 228.16 195.672H228.693H228.141C224.203 189.539 220.227 183.525 216.325 177.864C235.565 185.464 256.08 191.88 266.933 197.147C267.467 197.413 267.955 195.856 268.352 193.528C276.835 193.931 275.747 204.221 284.549 200.195C284.918 200.364 285.295 200.513 285.68 200.64L286.123 200.781L286.389 200.968C288.403 202.317 297.056 205.979 301.056 206.952C299.405 211.677 297.248 216.221 295.653 222.653L301.373 218.325C301.373 217.619 304.477 208.432 305.581 204.805L305.848 204.904C304.275 209.245 302.701 213.459 301.547 218.325C299.147 221.379 292.784 223.789 296.811 224.483C309.173 226.616 342.552 236.483 350.027 236.483C350.869 236.483 355.715 233.675 356.445 232.632L355.843 232.475C357.517 231.192 360.195 219.675 361.709 213.24L367.139 212.896C365.317 212.941 363.507 212.989 361.752 213.059C362.221 211.072 362.571 209.592 362.739 209.112C363.216 207.627 363.599 206.113 363.885 204.579C366.539 204.477 369.115 204.267 370.229 203.909L364 204.235C366.019 193.976 367.413 176.293 368.832 173.301C369.44 172.016 360.435 171.744 358.541 171.139C355.608 170.205 319.032 164.24 315.389 164.24C312.96 164.523 311.432 166.061 309.805 167.205C307.845 168.589 307.464 173.379 307.581 175.859C307.603 176.407 307.596 176.956 307.563 177.504C299.744 176.037 283.915 174.723 280.563 180.504C280.184 180.77 279.846 181.09 279.56 181.453C279.408 181.645 279.267 181.84 279.133 182.035C276.107 181.843 272.955 181.867 271.16 181.427C271.16 181.427 269.763 181.427 269.611 181.413C269.752 179.336 269.824 177.909 269.824 177.909C261.701 175.243 228.509 161.173 204.16 149.885C204.279 149.878 204.395 149.846 204.501 149.792H203.944C193.915 145.139 185.411 140.968 180.816 138.28C177.059 136.083 173.573 135.061 170.549 134.981C170.565 134.859 170.581 134.739 170.6 134.616C170.6 134.576 170.6 134.536 170.619 134.493C170.635 134.384 170.651 134.275 170.669 134.165C170.669 134.117 170.685 134.069 170.693 134.019C170.709 133.917 170.728 133.816 170.747 133.715C170.747 133.661 170.768 133.608 170.776 133.555C170.795 133.459 170.816 133.363 170.835 133.269C170.853 133.176 170.859 133.155 170.872 133.099C170.885 133.043 170.912 132.917 170.933 132.832C170.955 132.747 170.963 132.715 170.979 132.659C170.995 132.603 171.024 132.485 171.045 132.392C171.067 132.299 171.08 132.275 171.096 132.216C171.112 132.157 171.144 132.051 171.171 131.968L171.227 131.792C171.253 131.712 171.28 131.632 171.309 131.552C171.339 131.472 171.349 131.44 171.371 131.381C171.392 131.323 171.432 131.227 171.464 131.152C171.496 131.077 171.507 131.04 171.531 130.987C171.555 130.933 171.597 130.837 171.632 130.763L171.704 130.608C171.741 130.533 171.781 130.461 171.821 130.387C171.861 130.312 171.869 130.293 171.896 130.248L172.035 130.019L172.104 129.907C172.176 129.797 172.251 129.693 172.331 129.589C173.306 128.232 174.037 126.715 174.493 125.107C174.555 124.84 174.619 124.587 174.68 124.307C177.752 126.245 181.187 128.307 185.405 131.867C193.789 138.955 206.205 139.723 213.565 130.083C217.504 124.917 217.675 116.448 214.867 110.899C208.139 97.6027 198.637 98.0614 184.733 98.504C180.272 98.648 173.832 92.6934 164.712 92.6934C157.432 92.6934 148.005 100.693 154.448 111.384C154.667 109.499 155.64 108.013 156.421 106.691C157.784 104.392 158.507 103.915 159.029 104.456C157.562 105.771 156.566 107.53 156.192 109.464C155.216 114.323 152.861 120.051 152.459 124.061C152.011 128.48 153.581 130.941 156.192 133.301C157.336 134.328 157.283 135.624 157.243 136.728C157.178 137.536 157.052 138.339 156.867 139.128C154.144 139.661 151.267 141.568 148.96 144.979C143.699 152.749 133.021 166.096 125.525 171.344C121.808 173.949 118.765 175.107 114.352 173.832C111.115 172.899 87.6027 165.277 87.2933 165.877C87.1947 166.067 87.0613 166.344 86.9013 166.691C86.472 166.424 85.408 166.157 84.904 165.827C81.1147 163.373 80.7573 163.195 78.0853 159.125C76.4693 156.661 74.256 155.909 72.256 155.947C70.792 152.701 69.264 149.411 68.08 147.189C66.8613 144.904 65.2347 143.597 63.7493 144.955C62.8613 145.755 58.9893 148.627 57.0987 151.243C55.1573 153.931 56.0587 156.288 57.2293 158.947C55.064 159.824 55.7813 162.477 56.672 164.117C57.68 165.984 57.5947 163.891 57.6773 166.613C57.7093 167.696 60.0773 168.48 60.44 170.109C60.5973 170.819 63.64 173.691 64.2987 173.869C64.5653 174.36 64.832 174.859 65.0987 175.376C67.88 180.512 69.7307 178.917 72.5653 174.997C72.7467 174.749 72.9387 174.464 73.136 174.168C73.136 174.304 73.2293 174.376 73.4027 174.357C76.656 174.003 81.5813 175.989 82.8373 175.733C83.168 175.667 85.1787 170.219 86.2853 168.056C84.3173 172.555 80.6853 181.68 81.7013 182.019C91.6507 185.317 93.6533 185.808 113.435 190.779C123.939 193.419 129.851 193.712 136.136 188.051C139.275 185.224 142.373 182.336 145.435 179.477C145.099 192.675 145.059 207.909 145.011 218.893C124.069 236.392 68.1627 291.029 69.4907 292.8C70.0427 293.531 70.7547 294.381 71.5813 295.301C69.592 296.992 67.6027 298.941 66.5147 300.485C66.8107 299.352 67.1813 298.293 67.2587 297.424C67.288 297.117 55.9067 297.792 54.1227 297.885L53.7013 297.72C51 297.224 39.3493 290.765 39.048 290.752C36.4773 290.632 34.88 290.736 34.04 291.211C31.264 292.251 29.2053 295.744 29.8933 296.957C31.5093 299.752 36 306.272 42.1573 311.701ZM342.088 228.896C347.827 230.192 353.136 231.451 354.848 232.221L342.088 228.896ZM310.52 188.987C309.419 194.792 307.821 199.517 306.192 204.048L307.131 199.133C308.731 192.981 311.368 182.771 313.224 174.931C312 181.197 310.693 188.061 310.52 188.987ZM74.6667 161.365C75.848 163.275 76.2667 163.723 76.5333 165.517C76.0747 163.939 75.2 162.523 75.0373 162.189C74.9093 161.923 74.7867 161.648 74.6667 161.365ZM76.3067 169.029C76.514 168.718 76.6572 168.368 76.728 168C76.7093 168.827 76.4347 169.067 75.5653 170.224C75.8293 169.787 76.08 169.381 76.304 169.029H76.3067ZM72.4213 308.8C72.2628 308.793 72.1055 308.768 71.952 308.728C67.528 307.395 66.2587 305.395 66.144 303.325C67.32 305.112 70.016 307.624 72.4213 308.8Z" fill="white"/>
<path d="M173.677 274.968L176.424 274.843L176.024 274.31L175.632 273.776L173.627 273.867C166.16 274.216 159.109 274.542 150.067 274.547C149.707 273.982 149.133 271.48 148.429 266.299L147.923 266.651L147.413 267.006C148.048 271.488 148.717 274.739 149.341 275.387C149.411 275.468 149.498 275.534 149.595 275.58C149.691 275.625 149.797 275.651 149.904 275.653C159.051 275.648 166.155 275.317 173.677 274.968Z" fill="black"/>
<path d="M155.733 106.747L155.936 106.408C157.075 104.483 157.835 103.701 158.584 103.701C158.63 103.699 158.676 103.699 158.723 103.701C158.751 103.705 158.778 103.711 158.805 103.72C158.493 100.736 159.088 98.5306 160.464 98.0239L160.843 99.0533C160.224 99.2799 159.672 100.675 159.848 103.109C159.861 103.312 159.88 103.517 159.907 103.733C159.933 103.949 159.957 104.139 159.989 104.352C160.08 104.931 160.2 105.549 160.371 106.219C160.429 106.413 160.488 106.613 160.549 106.827C160.973 108.275 161.501 110.08 162.451 111.592C166.531 118.08 170.077 120.723 174.304 123.419L174.797 123.731L175.288 124.04L175.859 124.4C178.693 126.176 181.907 128.189 185.749 131.44C190.309 135.296 195.984 137.173 201.315 136.592C206.011 136.08 210.091 133.709 213.12 129.741C216.715 125.027 217.264 116.853 214.368 111.133C207.875 98.2986 198.853 98.5999 185.2 99.0266L184.733 99.0399C182.741 99.1066 180.435 98.0559 177.776 96.8399C174.253 95.2399 169.869 93.2319 164.709 93.2319C160.629 93.2319 156.176 95.8479 154.149 99.4533C152.883 101.693 151.949 105.245 154.224 109.835C154.605 108.75 155.112 107.714 155.733 106.747Z" fill="black"/>
<path d="M55.4293 160.035C54.8507 161.635 55.76 163.611 56.176 164.379C56.528 165.024 56.8027 165.315 57.0747 165.459C57.088 165.661 57.0987 166.011 57.112 166.445V166.629C57.136 167.387 57.7787 167.923 58.4613 168.496C59.088 169.029 59.736 169.563 59.888 170.235C60.0747 171.08 62.7867 173.701 63.888 174.291C64.12 174.728 64.36 175.173 64.608 175.624C65.8853 177.981 67.0213 179.069 68.288 179.152H68.4293C70.0747 179.152 71.528 177.331 72.9947 175.299C73.0907 175.171 73.1867 175.032 73.2853 174.885C73.3438 174.892 73.4029 174.892 73.4613 174.885C75.2773 174.688 77.7067 175.275 79.6587 175.747C80.556 175.997 81.4718 176.175 82.3973 176.28C80.6693 181.099 80.9413 181.765 81.064 182.072C81.1039 182.176 81.1662 182.27 81.2463 182.347C81.3265 182.425 81.4226 182.484 81.528 182.52C91.36 185.781 93.36 186.285 112.496 191.093L113.296 191.293C117.757 192.413 121.437 193.109 124.677 193.109C129.147 193.109 132.784 191.789 136.496 188.443C139.312 185.907 142.115 183.301 144.851 180.749C144.568 192.621 144.512 205.981 144.469 216.2C144.469 217.027 144.469 217.835 144.469 218.619L145.019 218.16C145.205 218.005 145.387 217.853 145.568 217.707C145.568 217.213 145.568 216.715 145.568 216.203C145.589 211.195 145.613 205.427 145.667 199.451C147.8 199.469 149.904 199.531 152.037 199.632C151.307 205.845 150.797 211.379 150.971 213.624L151.283 213.44C151.349 213.403 151.421 213.365 151.499 213.331C151.672 213.246 151.85 213.172 152.032 213.107C151.765 206.192 156.461 175.293 156.512 174.973L156.557 174.664L156.315 174.467C155.486 173.801 154.695 173.089 153.947 172.333C153.68 172.067 153.435 171.8 153.2 171.533C148.459 166.155 150 161.859 151.523 157.683C151.832 156.832 152.149 155.949 152.408 155.08C154.008 149.669 154.773 147.515 157.101 142.781C157.731 141.981 158.573 141.685 159.56 141.64C158.832 143.891 158.76 146.515 159.389 149.293C160.061 152.227 161.293 156.899 162.923 162.773C163.035 163.176 163.147 163.573 163.264 164C166.704 176.341 171.757 193.515 177.016 210.667L177.181 211.2C177.227 211.349 177.272 211.499 177.32 211.648C177.32 211.68 177.339 211.709 177.347 211.741C175.997 211.797 174.285 211.867 172.387 211.957C168.901 212.125 164.784 212.363 161.115 212.704C158.12 212.984 155.427 213.331 153.621 213.771C152.995 213.899 152.389 214.108 151.816 214.392L151.712 214.451C150.427 215.197 148.291 216.835 145.552 219.12L145.003 219.579L144.453 220.043C135.147 227.923 120 242.109 107.435 254.216C86.9387 273.971 71.072 290.28 70.0533 292.616C70.5093 293.208 71.04 293.851 71.6293 294.523L72 294.933L72.3707 295.341C75.2693 298.509 78.4465 301.409 81.864 304.008L82.32 304.344C82.4773 304.456 82.6293 304.565 82.784 304.672C85.432 306.539 87.736 307.605 88.9173 307.125C92.2773 305.744 105.888 295.781 120.296 285.235C130.963 277.419 140.096 270.776 147.245 265.792L147.76 265.432L148.267 265.08C155.365 260.157 160.384 256.987 162.869 256.088C162.245 254.856 161.536 253.459 160.835 252.027C159.067 248.485 156.864 244.077 156.488 243.645C156.534 243.692 156.589 243.728 156.651 243.749L157.04 242.728C157.413 242.869 157.659 243.219 161.813 251.528C162.552 253.008 163.299 254.507 163.963 255.813H164.027C164.086 255.809 164.146 255.809 164.205 255.813C164.327 255.829 164.443 255.87 164.549 255.933C164.654 255.996 164.745 256.079 164.816 256.179C166.8 259.005 168.549 261.581 170.227 264.072C172.611 267.595 174.76 270.765 176.955 273.693L177.355 274.227L177.76 274.76C188.232 288.323 200.728 296.803 246.157 311.872C246.333 311.528 246.621 310.971 247.016 310.211C247.093 310.059 247.179 309.893 247.283 309.725C247.387 309.557 247.445 309.411 247.533 309.245C248.568 307.269 250.109 304.363 252.149 300.619C252.237 300.461 252.325 300.299 252.416 300.136L252.683 299.653L253.656 297.877C252.904 297.208 250.859 295.899 248.352 294.293C241.608 289.976 230.504 282.861 221.616 274.048H222.416H223.176L273.189 273.632L272.971 272.928C271.157 267.123 250.123 228.947 228.704 195.539V195.131H228.437C224.867 189.568 221.288 184.144 217.789 179.027C225.168 181.899 232.584 184.565 239.773 187.147C250.816 191.115 260.352 194.541 266.707 197.632C266.827 197.689 266.958 197.715 267.091 197.71C267.223 197.704 267.352 197.666 267.467 197.6C267.747 197.432 268.229 197.144 268.8 194.112C272.051 194.429 273.72 196.349 275.331 198.213C276.864 199.984 278.339 201.68 280.931 201.68C281.947 201.68 283.131 201.413 284.557 200.792L284.96 200.608C285.243 200.475 285.533 200.328 285.835 200.168C286.056 200.237 286.277 200.307 286.504 200.371C288.387 200.896 290.298 201.32 292.227 201.64C293.499 201.861 294.771 202.059 296.029 202.253C297.419 202.464 298.776 202.675 300.077 202.909C300.611 203.008 301.144 203.109 301.677 203.219L302.211 203.336L302.744 203.459C303.616 203.667 304.448 203.899 305.229 204.168L305.528 204.275L305.659 204.32L305.683 204.256L305.765 204.285C305.915 204.336 306.067 204.384 306.213 204.437L305.832 205.461L305.451 205.325L305.184 205.235L304.933 205.152C304.149 204.904 303.333 204.685 302.456 204.491L301.923 204.373L301.389 204.264C301.187 204.95 300.971 205.627 300.741 206.293C298.075 205.573 293.733 203.875 290.504 202.424C288.947 202.122 287.407 201.737 285.891 201.269L286.112 201.419C288.093 202.752 296.104 206.152 300.381 207.328C299.928 208.6 299.44 209.856 298.944 211.136C297.632 214.531 296.277 218.037 295.163 222.52L294.789 224.021L295.016 223.848C295.016 223.885 295.016 223.92 295.032 223.955C295.195 224.661 296.045 224.896 296.765 225.021C301.955 225.915 310.739 228.147 320.037 230.512C332.645 233.712 345.683 237.027 350.075 237.027C351.096 237.027 356.349 234 357.008 232.835C357.083 232.721 357.126 232.589 357.131 232.453C357.136 232.318 357.104 232.183 357.037 232.064C357.008 232.02 356.974 231.979 356.936 231.941C358.315 229.501 359.941 223.331 362.189 213.765L362.229 213.587C364.067 213.517 365.947 213.472 367.808 213.424C373.549 213.28 379.485 213.133 383.979 212.371L383.797 211.304C379.381 212.051 373.483 212.2 367.781 212.341C366.019 212.387 364.237 212.429 362.491 212.493C362.867 210.893 363.157 209.704 363.291 209.293C363.73 207.925 364.086 206.531 364.357 205.12C366.901 205.011 369.32 204.797 370.419 204.448L370.085 203.405C369.139 203.707 366.952 203.907 364.579 204.019C365.472 199.387 366.24 193.352 366.944 187.84C367.779 181.277 368.568 175.08 369.309 173.517C369.367 173.4 369.395 173.27 369.391 173.138C369.387 173.007 369.351 172.879 369.285 172.765C368.827 171.941 366.76 171.627 362.477 171.149C360.845 170.968 359.301 170.795 358.688 170.6C355.941 169.72 321.864 164.088 315.907 163.696V163.608L315.328 163.675H315.309C315.253 163.675 315.2 163.691 315.147 163.699C313.128 163.981 311.68 165.077 310.4 166.051C310.083 166.293 309.781 166.523 309.475 166.739C307.267 168.293 306.901 173.389 307.019 175.864C307.032 176.173 307.032 176.507 307.019 176.845C299.107 175.467 283.72 174.227 280.123 180.115C279.743 180.395 279.402 180.724 279.109 181.093C279.016 181.211 278.928 181.331 278.843 181.451C278.043 181.403 277.227 181.368 276.443 181.336C274.408 181.251 272.485 181.171 271.28 180.875C271.14 180.85 270.998 180.844 270.856 180.856H270.181C270.296 179.109 270.355 177.941 270.357 177.923L270.379 177.504L269.981 177.373C262.005 174.765 228.648 160.635 204.216 149.307H204.243H204.208C194.213 144.669 185.72 140.507 181.08 137.787C177.645 135.776 174.248 134.659 171.16 134.448C171.427 132.717 171.883 131.029 172.76 129.915C173.783 128.497 174.548 126.91 175.021 125.227C175.021 125.211 175.021 125.195 175.021 125.179L174.533 124.869L174.045 124.563C169.557 121.72 165.837 119.045 161.512 112.187C160.48 110.544 159.928 108.659 159.485 107.144C159.312 106.549 159.099 105.811 158.893 105.325C158.831 105.144 158.734 104.977 158.608 104.832C158.594 104.818 158.578 104.806 158.56 104.797C158.533 104.797 158.091 104.896 156.864 106.971L156.659 107.315C156.336 107.848 155.995 108.432 155.699 109.051C155.675 109.152 155.648 109.253 155.627 109.357C155.416 110.408 155.136 111.509 154.827 112.624L154.779 113.043L154.731 112.963C154.448 113.968 154.144 114.979 153.843 115.979C152.955 118.912 152.115 121.701 151.883 124.008C151.405 128.701 153.107 131.28 155.805 133.707C156.749 134.557 156.712 135.64 156.675 136.709C156.624 137.367 156.527 138.02 156.384 138.664C153.512 139.344 150.672 141.448 148.485 144.677C143.552 151.963 132.861 165.528 125.189 170.901C121.669 173.371 118.789 174.555 114.483 173.301C113.664 173.064 111.512 172.389 108.787 171.533C104.869 170.304 99.4987 168.619 95.1867 167.331C87.144 164.931 87.0533 165.101 86.784 165.621C86.736 165.715 86.68 165.829 86.616 165.963C86.4853 165.909 86.3493 165.859 86.1973 165.803C85.8456 165.686 85.5048 165.539 85.1787 165.363L84.936 165.205C81.4373 162.941 81.072 162.704 78.5227 158.819C76.76 156.123 74.4 155.467 72.6 155.403C71.176 152.267 69.704 149.093 68.552 146.933C67.8827 145.68 66.7893 144.133 65.376 143.891C65.0132 143.833 64.6419 143.863 64.2931 143.978C63.9443 144.093 63.628 144.29 63.3707 144.552C63.1867 144.72 62.8373 144.995 62.4213 145.352C60.8213 146.656 58.1547 148.835 56.6453 150.931C54.648 153.693 55.416 156.155 56.512 158.701C56.0083 159.008 55.6259 159.479 55.4293 160.035ZM135.755 187.635C129.677 193.109 123.995 192.861 113.552 190.237L112.765 190.04C93.7867 185.269 91.6987 184.741 82.0613 181.549C82.0213 181.016 82.376 179.72 82.9307 178.083C86.5067 178.288 97.248 178.349 109.669 178.4C121.688 178.459 135.536 178.525 144.891 178.757C144.891 178.917 144.891 179.075 144.891 179.235C141.899 182.003 138.829 184.861 135.755 187.635ZM251.952 171.467C251.576 171.533 251.195 171.568 250.813 171.571C246.077 171.381 241.464 171.952 237.005 172.504C235.44 172.699 233.819 172.899 232.205 173.064C225.365 173.771 218.413 174.131 211.517 174.363C210.048 173.637 208.336 172.821 206.512 171.963C201.6 169.688 195.421 167.013 193.467 166.509L193.2 167.576C195.355 168.131 203.261 171.605 209.168 174.432C206.261 174.52 203.365 174.592 200.496 174.661L195.021 174.797L194.395 174.816L193.768 174.832C190.544 174.923 187.301 175.029 184.051 175.176L183.485 175.203L182.917 175.232C177.912 175.472 172.899 175.816 167.933 176.347C166.525 171.496 165.245 167.013 164.141 163.048C164.024 162.624 163.907 162.205 163.792 161.795C162.389 156.728 161.299 152.624 160.637 149.853C161.832 150.003 163.941 150.12 166.405 150.232L167.661 150.28C168.699 150.32 169.779 150.355 170.861 150.387L171.859 150.416L172.925 150.443L173.413 150.456L174.019 150.472H174.632C178.547 150.563 181.912 150.611 182.752 150.621C186.253 150.669 189.624 150.691 192.619 150.691C194.392 150.691 196.035 150.691 197.499 150.667C201.459 150.621 203.224 150.533 204.051 150.427C219.371 157.541 238.133 165.709 251.952 171.467ZM269.243 178.299C269.192 179.251 269.136 180.211 269.075 181.165L267.797 193.563C267.531 195.112 267.264 196.195 266.997 196.579C263.773 195.024 259.768 193.379 255.189 191.645C258.096 190.845 264.744 190.269 267.371 190.269V189.176C265.264 189.176 256.107 189.784 253.648 191.061C249.52 189.512 244.965 187.861 240.123 186.133C232.549 183.413 224.723 180.6 216.963 177.552C216.805 177.224 216.141 176.731 213.645 175.432L213.549 175.384C219.811 175.149 226.109 174.795 232.325 174.152C233.944 173.987 235.571 173.784 237.144 173.589C241.763 173.016 246.123 172.477 250.773 172.664C251.774 172.638 252.767 172.483 253.728 172.203C260.773 175.109 266.355 177.312 269.243 178.291V178.299ZM210.709 249.963C210.056 248.049 209.553 246.088 209.205 244.096C208.912 242.525 205.064 229.659 204.208 226.8C206.179 226.384 211.715 225.984 217.331 225.867C226.216 225.685 229.368 226.264 229.864 226.619C230.088 227.459 231.125 229.749 232.547 232.883C234.68 237.611 237.632 244.083 239.213 248.84L239.237 248.917C239.363 249.293 239.475 249.656 239.579 250.008C240.627 253.571 240.645 256.035 239.619 257.515C238.853 258.621 237.485 259.2 235.464 259.28C221.312 259.84 214.643 259.576 211.131 251.051C210.979 250.696 210.843 250.336 210.709 249.963ZM240.243 248.483C238.643 243.683 235.685 237.171 233.531 232.421C232.197 229.488 231.045 226.944 230.896 226.288C230.856 226.145 230.786 226.012 230.69 225.899C230.593 225.785 230.474 225.694 230.339 225.632C227.251 223.931 205.941 224.973 203.339 225.899L202.848 226.072L202.997 226.571C203.045 226.731 207.819 242.619 208.128 244.293C208.471 246.232 208.957 248.143 209.581 250.011L208.435 250.051L207.853 250.069L207.28 250.091L205.357 250.149L204.8 250.165L204.237 250.181C200.013 250.301 195.773 250.376 191.437 250.376V251.467C195.88 251.467 200.211 251.387 204.525 251.264L205.088 251.248L205.645 251.232L207.677 251.168L208.251 251.149L208.827 251.128L209.992 251.088C211.512 254.915 213.624 257.312 216.595 258.723C219.565 260.133 223.381 260.552 228.291 260.552C230.467 260.552 232.864 260.472 235.509 260.368C237.875 260.275 239.56 259.52 240.52 258.131C241.707 256.413 241.771 253.741 240.717 249.995C244.752 249.968 249.125 249.995 253.184 250.013C255.621 250.027 257.925 250.04 259.947 250.04C266.125 261.163 270.427 269.507 271.648 272.563L222.048 272.976H221.304H220.531L214.504 273.027H213.859H213.203L199.283 273.141C196.408 267.587 189.429 246.664 182.131 223.339C185.717 222.869 189.411 222.64 193.107 222.509L193.763 222.488L194.416 222.467C195.255 222.442 196.095 222.421 196.936 222.405L197.499 222.392H198.064L200.731 222.347C206.035 222.256 211.523 222.165 216.888 221.645C220.669 221.28 225.485 221.451 230.144 221.616C234.803 221.781 239.669 221.952 243.456 221.576V221.461C249.397 231.392 254.84 240.851 259.344 248.928C257.477 248.928 255.389 248.928 253.195 248.904C249.024 248.88 244.523 248.859 240.395 248.888C240.331 248.76 240.291 248.624 240.243 248.483ZM242.88 220.533C239.235 220.848 234.635 220.685 230.176 220.533C225.483 220.365 220.629 220.195 216.776 220.568C211.443 221.083 205.992 221.173 200.707 221.261L197.757 221.315H197.195H196.629C195.637 221.336 194.644 221.363 193.651 221.395L192.992 221.416L192.331 221.44C188.784 221.579 185.243 221.816 181.792 222.277C180.797 219.096 179.797 215.877 178.805 212.643C178.749 212.461 178.693 212.283 178.64 212.109C178.587 211.936 178.552 211.827 178.509 211.685C178.509 211.648 178.485 211.611 178.475 211.571C178.429 211.429 178.387 211.288 178.344 211.147C178.288 210.965 178.232 210.787 178.179 210.613C176.8 206.133 175.432 201.629 174.107 197.219C175.945 196.934 177.797 196.756 179.656 196.685C179.279 196.975 179.038 197.547 178.933 198.4C178.845 199.149 179.317 201.296 180.395 201.867C180.576 201.964 180.778 202.016 180.984 202.019C181.325 202.009 181.651 201.875 181.899 201.64C182.856 200.84 182.611 199.269 182.109 198.173C181.821 197.549 181.376 196.917 180.848 196.635C183.352 196.515 186.315 196.427 189.523 196.368L190.091 196.355H190.659C194.453 196.285 198.547 196.245 202.605 196.224H203.733C211.2 196.192 218.443 196.224 223.323 196.224L227.829 196.24C233.005 204.304 238.099 212.56 242.88 220.533ZM181.312 199.12C181.499 199.723 181.579 200.48 181.195 200.797C181.021 200.947 180.96 200.915 180.928 200.891C180.413 200.624 179.976 199.024 180.037 198.512C180.117 197.843 180.267 197.629 180.304 197.576C180.493 197.637 181.016 198.181 181.312 199.123V199.12ZM223.323 195.12C218.101 195.101 210.877 195.072 203.52 195.104H202.384C198.272 195.125 194.149 195.168 190.339 195.243H189.771H189.203C182.061 195.395 176.173 195.667 173.789 196.139C171.821 189.584 169.944 183.235 168.243 177.381C173.219 176.848 178.248 176.515 183.272 176.277L183.84 176.251L184.405 176.224C187.747 176.075 191.072 175.957 194.397 175.877L195.021 175.861L195.645 175.843L200.52 175.723C204.075 175.635 207.669 175.547 211.283 175.427C213.24 176.392 214.787 177.208 215.549 177.691L215.869 178.157C219.603 183.581 223.392 189.291 227.136 195.107L223.323 195.12ZM174.083 149.373L173.464 149.357L172.853 149.333L171.229 149.288L170.296 149.261L169.4 149.232C168.565 149.205 167.768 149.176 167.016 149.147L165.584 149.088C163.003 148.973 161.125 148.845 160.381 148.709C159.848 146.125 159.965 143.704 160.699 141.659C160.763 141.48 160.835 141.304 160.909 141.125C160.984 140.947 161.064 140.773 161.149 140.592C161.219 140.453 161.285 140.325 161.363 140.179C161.363 140.152 161.392 140.125 161.408 140.099L161.427 140.069C161.512 139.92 161.605 139.773 161.693 139.629C161.709 139.607 161.723 139.584 161.736 139.56C161.808 139.456 161.885 139.357 161.96 139.253L162.093 139.075C162.585 138.435 163.164 137.868 163.813 137.389C165.504 136.149 167.589 135.523 169.917 135.488H170.107H170.467C170.648 135.488 170.832 135.501 171.016 135.515C173.949 135.699 177.208 136.771 180.523 138.715C184.912 141.283 192.739 145.147 202.021 149.477C196.904 149.712 184.192 149.619 174.083 149.373ZM154.917 178.173C153.584 178 151.208 177.867 148.067 177.757L146.515 177.709L146.013 177.696C146.051 176.403 146.091 175.131 146.133 173.893C146.181 172.488 146.211 171.021 146.243 169.467C146.328 165.256 146.424 160.632 146.931 156.317C148.328 156.317 149.725 156.317 150.837 156.331L150.485 157.317C148.928 161.6 147.2 166.4 152.381 172.267C152.616 172.533 152.864 172.8 153.128 173.067C153.838 173.792 154.588 174.477 155.373 175.12C155.293 175.635 155.133 176.701 154.917 178.16V178.173ZM151.347 154.776C151.302 154.931 151.254 155.085 151.203 155.24C150.136 155.224 148.624 155.208 147.069 155.213C147.891 149.187 149.608 143.907 153.371 141.424C154.197 140.885 155.107 140.486 156.064 140.245C155.728 141.824 155.587 142.581 155.797 142.968C153.669 147.309 152.888 149.541 151.347 154.763V154.776ZM145.661 198.376C145.72 192.141 145.811 185.72 145.96 179.709C145.96 179.395 145.968 179.083 145.984 178.773L146.936 178.8C150.611 178.909 153.381 179.051 154.76 179.235C154.077 183.92 152.992 191.557 152.152 198.549C149.976 198.445 147.843 198.381 145.661 198.363V198.376ZM350.056 235.963C345.789 235.963 332.829 232.667 320.288 229.48C310.968 227.112 302.155 224.875 296.933 223.971C296.644 223.94 296.363 223.856 296.104 223.723C296.28 223.347 297.416 222.528 298.259 221.92C299.365 221.12 300.595 220.232 301.523 219.253C303.208 220.541 309.555 222.083 320.224 224.363C322.573 224.864 324.429 225.259 324.915 225.429C327.048 226.131 332.277 227.296 337.813 228.533C344.696 230.069 354.117 232.173 354.968 232.941C355.043 233.008 355.127 233.063 355.219 233.104C353.701 234.192 350.64 235.907 350.056 235.949V235.963ZM362.363 172.261C364.312 172.477 367.496 172.832 368.243 173.264C367.459 175.203 366.717 181.024 365.864 187.725C365.149 193.325 364.365 199.472 363.464 204.085C360.84 204.176 358.187 204.157 356.872 204.043L356.776 205.131C357.509 205.197 358.757 205.232 360.219 205.232C361.165 205.232 362.197 205.216 363.24 205.184C362.984 206.462 362.654 207.723 362.251 208.963C362.085 209.44 361.773 210.739 361.344 212.557C358.404 212.643 355.472 212.892 352.56 213.304L352.733 214.371C355.502 213.976 358.29 213.735 361.085 213.648C360.309 216.947 359.259 221.413 358.203 225.152C356.973 229.499 356.216 231.117 355.827 231.72H355.088C353.075 230.808 347.088 229.435 338.056 227.419C332.544 226.189 327.341 225.019 325.256 224.344C324.723 224.165 322.928 223.784 320.456 223.253C317.184 222.557 312.707 221.6 308.989 220.653C303.563 219.269 302.395 218.571 302.144 218.325C303.211 213.875 304.6 210.04 306.072 205.984C307.909 200.917 309.805 195.68 311.061 189.075C311.379 187.397 312.608 180.976 313.749 175.104C314.869 170.371 315.715 166.464 315.883 164.787C321.715 165.173 355.976 170.877 358.357 171.637C359.077 171.88 360.6 172.051 362.363 172.248V172.261ZM294.363 176.795C298.586 176.83 302.799 177.218 306.957 177.955V177.968L307.491 178.064L308.024 178.163L308.373 178.229C309.259 178.413 310.005 178.592 310.565 178.763V178.725C310.736 178.771 310.893 178.813 311.035 178.856L310.725 179.904C310.037 179.704 309.069 179.477 307.901 179.251L307.368 179.152L306.835 179.056C306.701 180.187 306.493 181.408 306.24 182.677C304.613 182.427 302.451 181.859 299.992 181.213C295.725 180.096 290.925 178.829 286.845 178.656C285.571 178.916 284.344 179.366 283.203 179.989C287.539 179.069 294.373 180.861 299.715 182.264C302.173 182.909 304.339 183.48 306.016 183.744C305.523 186.043 304.912 188.448 304.333 190.725C303.549 193.797 302.875 196.451 302.64 198.261C302.467 199.583 302.223 200.894 301.909 202.189C300.099 201.805 298.176 201.504 296.163 201.197C293 200.712 289.741 200.208 286.701 199.331C286.729 199.202 286.729 199.068 286.701 198.939L286.133 198.92L285.571 198.893H285.304L284.421 198.84C283.981 198.808 283.541 198.776 283.109 198.739L282.627 198.693H282.555C282.104 198.651 281.675 198.603 281.277 198.555C280.248 198.429 279.456 198.288 279.203 198.16L279.704 197.187C279.913 197.253 280.129 197.301 280.347 197.328C280.568 197.363 280.835 197.4 281.147 197.437L281.44 197.472L281.875 197.52L282.997 197.632H283.123C284.077 197.717 285.099 197.789 286.008 197.835L286.781 197.867C287.123 197.867 287.437 197.883 287.707 197.883C287.877 197.773 288.072 197.653 288.301 197.517C289.445 196.851 289.205 195.733 288.992 194.749C288.779 193.765 288.525 192.592 289.333 191.333C290.323 189.789 287.2 184.184 287.16 184.133C286.261 182.648 283.989 182.013 281.347 181.701C281.123 181.675 280.893 181.651 280.664 181.629C280.669 181.609 280.675 181.588 280.683 181.568C280.757 181.342 280.852 181.124 280.965 180.915C281.41 180.126 282.054 179.468 282.832 179.005L282.949 178.941H282.923C285.707 177.213 290.381 176.8 294.365 176.8L294.363 176.795ZM147.632 147.819C146.831 150.219 146.275 152.694 145.971 155.205C144.453 155.221 142.981 155.259 141.912 155.336C144.053 152.675 146.013 150.077 147.632 147.819ZM87.6267 166.4C89.7253 166.691 102.293 170.637 108.472 172.576C111.203 173.432 113.357 174.109 114.189 174.349C118.893 175.707 122.131 174.376 125.829 171.784C130.427 168.563 136.075 162.472 140.955 156.509C141.488 156.387 143.56 156.325 145.832 156.304C145.331 160.632 145.235 165.227 145.149 169.424C145.117 170.973 145.088 172.437 145.04 173.832C144.997 175.075 144.957 176.349 144.92 177.645C135.715 177.413 122.181 177.347 109.675 177.285C97.608 177.227 87.128 177.176 83.3013 176.987C84.2987 174.173 85.7013 170.728 86.7253 168.376C86.8381 168.141 86.9664 167.914 87.1093 167.696C87.1469 167.642 87.179 167.585 87.2053 167.525C87.3241 167.47 87.4257 167.383 87.4994 167.275C87.5731 167.167 87.6161 167.04 87.624 166.909C87.6296 166.792 87.6019 166.676 87.544 166.573C87.5733 166.523 87.6 166.461 87.6267 166.4ZM57.5307 151.563C58.9627 149.584 61.56 147.461 63.112 146.192C63.552 145.832 63.912 145.547 64.1093 145.357C64.3461 145.112 64.6677 144.967 65.008 144.952C65.0688 144.952 65.1295 144.958 65.1893 144.968C65.9413 145.096 66.816 146 67.5893 147.448C68.68 149.491 70.0667 152.456 71.4267 155.448L71.2133 155.475C69.1547 155.768 67.0827 156.875 66.784 157.845C66.4693 158.864 66.5173 159.619 66.944 160.157C67.6667 161.075 69.1627 160.981 70.7467 160.88C72.08 160.795 73.6187 160.699 74.0347 161.379L74.1813 161.616L74.5307 162.416C74.5733 162.512 74.6427 162.64 74.7493 162.835C75.2639 163.732 75.683 164.682 76 165.667C76.04 165.963 76.0747 166.293 76.1093 166.685C76.1557 167.107 76.1806 167.531 76.184 167.955C76.1237 168.229 76.0134 168.489 75.8587 168.723C75.6373 169.069 75.3867 169.475 75.1253 169.904C74.944 170.144 74.7387 170.421 74.4987 170.755L74.3387 170.973C73.1973 172.531 72.6827 173.392 72.6027 173.963C72.4373 174.211 72.2747 174.445 72.1253 174.653C70.6187 176.741 69.4027 178.12 68.3733 178.051C67.5467 177.997 66.6347 177.029 65.5867 175.091C65.32 174.579 65.0533 174.085 64.7867 173.6L57.7173 158.72C56.568 156.117 55.768 154.005 57.5307 151.563Z" fill="black"/>
<path d="M50.1493 144.776L50.5067 143.733C49.7067 143.467 48.6907 142.845 47.6053 142.195C46.52 141.544 45.344 140.84 44.3467 140.469L43.9653 141.493C44.8693 141.829 45.9733 142.493 47.0427 143.133C48.1787 143.824 49.2507 144.467 50.1493 144.776Z" fill="black"/>
<path d="M58.9333 137.373L58.9573 137.405C58.7787 137.139 57.2027 133.915 57.0133 133.499L56 133.957C56.016 133.995 57.8533 137.808 58.072 138.072L58.9333 137.373Z" fill="black"/>
<path d="M68 136.445C68.7413 134.968 69.3147 133.797 69.3893 133.259L68.304 133.109C68.2507 133.512 67.4507 135.101 67.0213 135.955C66.8107 136.373 66.6293 136.739 66.5307 136.955L67.528 137.403C67.6187 137.208 67.7973 136.853 68 136.445Z" fill="black"/>
<path d="M75.328 144C76.296 143.395 77.6213 142.563 77.976 142.4L77.5147 141.408C77.128 141.587 76.1227 142.208 74.7467 143.077C74.1333 143.461 73.5547 143.824 73.296 143.973L73.8427 144.92C74.1173 144.757 74.68 144.405 75.328 144Z" fill="black"/>
<path d="M172.24 164.957C171.892 164.798 171.501 164.755 171.127 164.835C170.752 164.915 170.413 165.113 170.16 165.4C169.603 166.085 169.693 167.128 170.403 168.187C171.232 169.427 172.296 170.003 173.069 170.003C173.177 170.003 173.285 169.991 173.389 169.965C173.572 169.926 173.737 169.83 173.86 169.69C173.984 169.55 174.06 169.375 174.077 169.189C174.331 166.048 172.736 165.155 172.24 164.957ZM172.992 168.907C172.691 168.869 171.973 168.571 171.312 167.573C170.808 166.821 170.824 166.309 171.008 166.083C171.116 165.98 171.253 165.913 171.401 165.892C171.549 165.871 171.7 165.896 171.832 165.965C172.467 166.227 173.093 167.131 172.992 168.907Z" fill="black"/>
<path d="M175.523 181.045C174.632 181.264 174.493 182.573 174.456 183.003C174.397 183.536 174.477 185.643 175.923 186.059C176.143 186.126 176.372 186.161 176.603 186.163C176.818 186.172 177.032 186.129 177.227 186.036C177.421 185.943 177.59 185.803 177.717 185.629C178.395 184.699 177.797 182.944 177.157 181.995C176.467 180.987 175.837 180.965 175.523 181.045ZM176.8 185.013C176.723 185.091 176.496 185.091 176.208 185.013C175.576 184.829 175.491 183.459 175.528 183.125C175.537 182.778 175.629 182.438 175.795 182.133C176.021 182.248 176.512 182.877 176.779 183.76C176.995 184.48 176.915 184.904 176.8 185.013Z" fill="black"/>
<path d="M187.973 216C187.871 215.706 187.748 215.42 187.605 215.144C187.267 214.496 186.725 213.776 185.973 213.728H185.896H185.88C185.668 213.731 185.461 213.791 185.28 213.901C184.829 214.168 184.464 214.749 184.189 215.635C184.021 216.168 184.485 218.667 184.989 219.013C185.707 219.517 186.323 219.768 186.856 219.768C187.149 219.771 187.435 219.677 187.669 219.501C188.469 218.909 188.413 217.541 188.104 216.403C188.056 216.267 188.016 216.125 187.973 216ZM187.003 218.624C186.888 218.709 186.469 218.707 185.688 218.165C185.509 217.776 185.187 216.285 185.237 215.941C185.525 215.027 185.816 214.816 185.896 214.816C186.072 214.816 186.571 215.277 186.939 216.355C187.349 217.557 187.24 218.443 187.003 218.621V218.624Z" fill="black"/>
<path d="M41.7947 312.112C43.0827 313.245 44.5227 314.576 46.0453 315.984C50.7493 320.328 56.0773 325.253 61.0427 328.296C61.8354 328.785 62.5936 329.327 63.312 329.92C64.08 330.533 64.6587 330.957 65.2693 330.957C65.8293 330.957 66.416 330.597 67.2027 329.696C67.6984 329.139 68.2255 328.611 68.7813 328.115C69.6533 327.315 70.2293 326.781 70.1147 326.115C70.0994 326.022 70.0697 325.932 70.0267 325.848C70.8693 325.176 72.448 323.475 75.6987 319.216C76.4027 318.296 80.8587 312.347 80.9227 311.995C81.1253 310.928 80.9387 310.037 80.3733 309.392C79.808 308.747 79.04 308.459 78.12 308.293C79.232 307.517 80.6053 306.496 81.9227 305.397L81.4613 305.067L81.0053 304.728C77.6133 302.184 74.0427 298.757 71.536 296.037L71.168 295.632L70.8 295.224C69.7103 296.164 68.6698 297.16 67.6827 298.208C67.7389 297.96 67.7799 297.709 67.8053 297.456L67.8213 297.189L67.648 297.011C67.3813 296.744 67.2427 296.589 55.1627 297.259L54.2133 297.312L53.9013 297.189L53.8 297.16C51.9467 296.819 45.3627 293.376 41.824 291.525C39.28 290.192 39.264 290.192 39.0747 290.192C36.2427 290.061 34.6533 290.192 33.7413 290.725C31.6773 291.541 30.008 293.571 29.4373 295.184C29.136 296.019 29.1253 296.72 29.408 297.216C31.1413 300.213 35.6773 306.728 41.7947 312.112ZM38.952 291.283C39.2187 291.403 40.248 291.939 41.328 292.504C46.248 295.077 51.648 297.837 53.56 298.235L54.0453 298.424H54.1627L55.2293 298.365C61.5227 298.016 65.3627 297.856 66.6427 297.883C66.5547 298.339 66.408 298.848 66.256 299.379C66.176 299.645 66.0933 299.952 66.0133 300.256C65.695 301.315 65.5606 302.421 65.616 303.525C65.8027 305.699 67.1893 307.877 71.7893 309.253C71.949 309.296 72.1124 309.324 72.2773 309.336C72.7976 309.372 73.3197 309.372 73.84 309.336L74.232 309.317C74.6747 309.293 75.1547 309.269 75.6453 309.259C76 309.259 76.3573 309.259 76.712 309.259C77.9147 309.304 79.0267 309.509 79.5627 310.123C79.8853 310.491 79.9893 311.008 79.8773 311.701C78.7973 313.339 70.584 324.589 69.096 325.181C66.9627 324.915 59.8027 319.707 51.1787 312.165C42.848 304.883 35.9947 297.901 34.88 295.565C34.2 294.141 33.5627 292.6 33.984 291.965C34.3653 291.392 35.7813 291.245 37.328 291.245C37.8667 291.24 38.4213 291.259 38.952 291.283ZM30.4827 295.549C30.9662 294.37 31.7505 293.337 32.7573 292.555C32.776 293.469 33.2187 294.616 33.8907 296.021C35.28 298.931 43.4533 306.848 50.4587 312.973C53.896 315.976 65.2827 325.72 68.9253 326.243C68.9574 326.258 68.9886 326.275 69.0187 326.293C68.7266 326.661 68.3987 326.999 68.04 327.301C67.453 327.824 66.8974 328.38 66.376 328.968C65.8427 329.584 65.4907 329.872 65.2453 329.853C65 329.835 64.544 329.493 63.9973 329.053C63.2416 328.434 62.4461 327.865 61.616 327.349C56.7413 324.365 51.4533 319.477 46.7893 315.165C45.2613 313.755 43.816 312.419 42.5227 311.277C36.5147 305.989 32.064 299.6 30.3813 296.656C30.288 296.517 30.2693 296.141 30.4827 295.552V295.549Z" fill="black"/>
<path d="M240.024 339.627C240.451 340.355 241.357 341.205 243.323 341.12C244.923 341.051 246.816 341.205 248.808 341.371C250.597 341.517 252.467 341.669 254.285 341.669C257.811 341.669 261.152 341.093 263.352 338.776C268.077 333.795 269.736 330.621 272.032 326.243C272.811 324.749 273.693 323.061 274.795 321.125C276.483 318.16 279.136 312.795 277.963 310.173C277.79 309.792 277.528 309.459 277.197 309.203C276.867 308.947 276.479 308.776 276.067 308.704C275.71 308.623 275.372 308.475 275.069 308.269C274.828 308.091 274.552 307.965 274.259 307.9C273.966 307.835 273.662 307.833 273.368 307.893C272.819 307.093 271.643 306.325 269.72 305.139L269.341 304.904C268.917 304.637 268.437 304.333 267.92 304.003C263.387 301.091 259.461 298.787 257.592 300.104C257.337 300.299 257.129 300.547 256.981 300.832C256.833 301.116 256.749 301.429 256.736 301.749C255.869 301.251 254.837 300.701 253.661 300.149C253.573 300.309 253.483 300.472 253.395 300.632C253.307 300.792 253.219 300.955 253.128 301.115C251.085 304.861 249.541 307.781 248.501 309.752C248.413 309.92 248.331 310.083 248.248 310.235C248.165 310.387 248.077 310.568 247.981 310.723C248.624 311.019 249.352 311.328 250.115 311.605C250.074 311.65 250.036 311.697 250.003 311.747C249.635 312.28 249.573 313.931 249.573 317.437C249.573 318.517 248.507 325.011 248.088 325.723C247.704 326.082 247.276 326.391 246.813 326.64C246.251 326.989 245.48 327.469 244.445 328.216C244.16 328.405 243.862 328.576 243.555 328.728C242.488 329.285 241.168 329.979 240.824 331.621C240.787 331.797 240.707 332.072 240.621 332.363C240.384 333.163 240.088 334.125 240.16 334.845C239.653 335.827 239.123 338.08 240.024 339.627ZM241.915 331.829C242.152 330.691 243.133 330.179 244.08 329.68C244.435 329.507 244.777 329.308 245.104 329.085C246.107 328.363 246.829 327.915 247.408 327.555C247.904 327.276 248.369 326.945 248.795 326.568C249.483 326.459 251.528 326.115 251.797 326.069C255.075 325.517 255.075 325.517 255.219 325.352L254.787 324.973L254.669 324.464C254.403 324.52 251.021 325.093 249.36 325.368C250.003 323.088 250.693 318.083 250.693 317.421C250.693 316.045 250.693 312.824 250.928 312.355C251.043 312.189 251.44 312.251 252.077 312.355C252.854 312.545 253.662 312.573 254.451 312.437C255.555 312.195 256.731 311.403 257.723 309.317C257.937 308.862 258.127 308.396 258.291 307.92L258.368 307.691C258.635 306.957 258.901 306.173 258.901 305.44C258.912 304.931 258.737 304.435 258.408 304.045C258.286 303.901 258.148 303.772 257.997 303.659C257.952 303.445 257.915 303.243 257.888 303.051C257.855 302.823 257.834 302.593 257.824 302.363C257.803 301.667 257.941 301.189 258.243 300.976C259.661 299.976 264.661 303.181 267.349 304.901C267.883 305.237 268.357 305.547 268.787 305.813L269.165 306.048C271.283 307.355 272.451 308.077 272.632 308.811C272.813 309.544 272.125 310.747 270.872 312.917C270.229 314.029 269.432 315.413 268.509 317.155L268.443 317.28C260.141 332.939 256.851 334.779 255.819 334.843H255.784C246.821 335.4 242.04 335.173 241.28 334.72C241.235 334.227 241.515 333.283 241.704 332.645C241.784 332.333 241.867 332.051 241.915 331.829ZM274.499 309.195C274.905 309.464 275.357 309.656 275.832 309.763C276.076 309.797 276.308 309.893 276.505 310.041C276.701 310.189 276.857 310.385 276.957 310.611C277.661 312.179 276.496 315.904 273.84 320.573C272.728 322.525 271.84 324.224 271.056 325.723C268.8 330.037 267.173 333.152 262.552 338.021C259.579 341.157 253.901 340.688 248.893 340.28C246.864 340.112 244.949 339.955 243.269 340.013C242.141 340.061 241.363 339.747 240.963 339.061C240.429 338.131 240.624 336.661 240.963 335.76C241.731 336.043 243.328 336.28 246.725 336.28C248.923 336.28 251.877 336.181 255.84 335.933H255.877C258.557 335.768 263.107 329.664 269.397 317.8L269.464 317.675C270.379 315.949 271.171 314.576 271.808 313.472C273.091 311.248 273.787 309.949 273.739 308.939C274.014 308.931 274.284 309.022 274.499 309.195Z" fill="black"/>
</svg>
