<svg width="400" height="400" viewBox="0 0 400 400" fill="none" xmlns="http://www.w3.org/2000/svg">
<path d="M154.592 74.8054L153.691 75.1601C154.371 75.1041 154.835 75.0001 154.592 74.8054Z" fill="#F1F1F1"/>
<path d="M346.877 284.464C342.515 285.955 332.696 284.4 322.739 284.731C322.929 284.585 323.13 284.454 323.341 284.341C331.875 279.808 330.203 276.251 325.843 278.475C322.699 280.075 321.325 283.16 320.944 284.24C320.989 284.061 321.048 283.816 321.12 283.493C323.832 270.883 311.949 272.027 318.453 282.643C318.971 283.488 319.181 284.453 319.52 284.872C314.936 284.936 314.144 283.117 308.808 285.8C308.275 284.883 307.587 283.501 306.853 282.104L310.491 280.181C310.827 279.475 307.755 273.2 303.011 264.32C303.011 264.32 298.875 256.763 293.144 246.587H310.584V239.837H289.331C280.707 224.637 270.107 206.483 264.133 198.163C261.181 194.048 254.851 192.371 243.92 192.389C235.213 192.408 217.061 192.499 198.853 192.632C194.32 181.965 189.216 169.192 188.936 168.491L189.701 168.797V168.763C190.141 169.029 191.219 169.613 195.835 171.12C244.227 186.933 224.821 149.6 201.301 135.053C192.301 129.488 173.693 113.349 160.971 113.76V112.093C160.968 111.722 160.818 111.367 160.554 111.106C160.29 110.846 159.934 110.7 159.563 110.701L152.331 110.739C152.317 109.747 152.168 108.803 152.136 107.859C152.091 106.525 152.027 104.957 153.408 103.715C156.579 100.861 158.475 97.8853 157.941 92.5413C157.461 87.784 154.72 81.04 153.499 75.24L153.704 75.16L153.485 75.176C153.464 75.08 153.44 74.9813 153.421 74.888C150.605 60.872 125.421 62.7067 128.645 79.4213C128.712 79.76 128.96 81.4613 129.331 83.7307C129.119 83.8907 128.941 84.0908 128.807 84.3196C128.673 84.5484 128.586 84.8013 128.549 85.064L129.491 84.6933C129.963 87.52 130.595 90.9787 131.285 93.792C131.835 96.0347 133.309 98.448 133.899 99.2133C136.117 102.093 136.259 107.613 136.44 110.824L128.467 110.864C128.096 110.867 127.741 111.017 127.48 111.28C127.219 111.544 127.073 111.901 127.075 112.272V112.419C119.419 110.893 111.509 116.952 103.584 123.691C98.3333 128.155 91.1973 133.187 88.184 135.928C75.88 147.128 61.1013 163.685 73.5173 173.309C79.312 177.803 87.5467 179.829 96.112 180.739C109.376 180.888 128.08 181.133 128.08 181.133L131.704 196.819C131.704 196.819 128.597 231.504 162.499 239.837H69.8293V246.589H220.267C223.229 265.464 223.579 286.264 223.579 305.523C223.579 305.576 225.136 305.461 227.523 305.256C227.477 306.456 227.44 307.8 227.443 308.96C225.843 309.048 224.445 309.139 224.453 309.211C224.72 311.821 223.8 333.075 225.312 333.352C227.712 333.792 238.885 334.581 239.851 332.792C240.045 332.432 240.736 327.533 242.117 326.499C242.549 326.173 243.051 326.232 243.627 326.923C244.117 327.515 244.661 330.413 245.264 331.901C247.011 336.229 276.171 333.4 281.248 333.379C282.557 333.379 286.888 328.093 278.819 325.355C273.219 323.451 269.296 322.117 266.379 320.952L260.8 319.059C258.457 318.261 256.42 316.755 254.972 314.748C253.524 312.741 252.736 310.333 252.717 307.859L252.184 246.576H253.237L286.515 289.805C287.659 291.139 288.32 291.904 288.32 291.904L291.221 290.371C292.352 291.853 293.595 293.635 294.512 294.904C293.853 295.333 293.403 295.645 293.445 295.68C295.155 297.704 306.512 315.587 307.896 315.133C310.104 314.413 319.629 310.027 319.408 308.12C319.333 307.515 314.581 298.149 322.499 303.787C326.387 306.555 349.307 292.251 353.432 289.941C354.485 289.368 354.525 281.851 346.877 284.464ZM123.595 157.333H123.533H123.456H123.363H123.299C123.059 157.315 122.765 157.296 122.416 157.277H122.104C121.064 157.235 119.685 157.208 118.184 157.192H118.048H117.037H116.563H115.093H113.907H113.192H112.085H110.456H109.061H108.621C108.264 157.192 107.973 157.192 107.768 157.176C107.523 157.176 107.392 157.157 107.408 157.144L107.477 157.085C108.584 157.107 109.576 157.133 110.395 157.176L107.571 157.011C110.117 154.949 121.704 147.616 121.728 145.997L123.981 157.525C123.868 157.433 123.736 157.368 123.595 157.333ZM217.333 229.797C217.581 232.163 218.133 235.131 218.893 238.901C218.957 239.211 219.016 239.525 219.077 239.837H183.467C194.565 237.955 206.355 233.92 217.333 229.797Z" fill="#F1F1F1"/>
<path d="M289.752 180.8L290.285 172.608C292.013 173.363 293.955 174.112 296.152 174.861C301.933 176.832 311.885 179.171 313.005 179.56C318.629 181.52 310.659 171.187 308.709 166.645C305.432 159.005 293.28 144.163 292.192 133.285C291.197 123.355 279.195 121.605 277.376 130.597C275.509 132.179 273.189 134.8 274.731 134.8C275.264 134.8 276.219 134.832 277.245 134.8C277.245 134.837 277.245 134.872 277.245 134.907C279.256 152.507 272.533 161.88 284.835 169.763C285.101 173.955 285.739 180.723 285.739 180.723L284.92 169.816C286.625 170.876 288.408 171.805 290.253 172.595C290.032 175.275 289.949 177.477 289.784 180.371L289.752 180.8Z" fill="#F1F1F1"/>
<path d="M310.667 328.488H311.76V314.133C311.381 314.312 311.016 314.477 310.667 314.635V328.488Z" fill="#2F2F2F"/>
<path d="M186.44 239.837C185.444 240.035 184.455 240.217 183.472 240.384C182.228 240.594 180.989 240.772 179.757 240.917H218.723C218.688 240.733 218.651 240.552 218.616 240.384C218.581 240.216 218.544 240.019 218.507 239.837H186.44Z" fill="#2F2F2F"/>
<path d="M246.301 304.213L245.749 304.256L245.216 304.299C241.659 304.565 237.267 304.963 233.376 305.301L228.043 305.765L227.509 305.811L226.976 305.856C226.947 306.709 226.923 307.603 226.92 308.445L227.453 308.413L227.987 308.384L229.384 308.312C230.523 308.253 231.597 308.2 231.883 308.168C234.613 307.883 238.848 307.688 241.941 307.549C243.117 307.496 244.133 307.448 244.781 307.411L245.357 307.376L245.904 307.352L246.437 307.331C246.437 307.232 246.437 307.136 246.437 307.032C246.421 306.64 246.403 306.203 246.384 305.72C246.355 305.171 246.331 304.672 246.301 304.213Z" fill="#2F2F2F"/>
<path d="M296.984 292.715C297.877 292.152 298.72 291.621 298.933 291.469C302.987 288.581 305.867 286.733 308.075 285.576L308.56 285.325C308.728 285.24 308.891 285.163 309.051 285.085C308.741 284.517 308.384 283.829 308.016 283.12L307.608 282.336L307.125 282.603L306.64 282.869L292.053 290.587L291.563 290.853L291.075 291.12C291.875 292.168 292.675 293.328 293.389 294.32L293.744 294.819C293.875 294.731 294.011 294.629 294.2 294.517L294.661 294.219C295.227 293.819 295.981 293.333 296.984 292.715Z" fill="#2F2F2F"/>
<path d="M227.533 304.707L228.067 304.661L233.259 304.213C237.149 303.872 241.525 303.491 245.107 303.211L245.64 303.171L246.195 303.128C248.627 302.944 250.568 302.824 251.528 302.821C252.485 299.941 252.128 273.107 251.888 255.211C251.848 252.139 251.808 249.235 251.776 246.589C251.776 246.405 251.776 246.221 251.776 246.043C251.776 245.864 251.776 245.677 251.776 245.509V245.243C251.776 244.653 251.77 244.078 251.757 243.52C251.736 242.669 251.699 241.808 251.643 240.944L251.603 240.411C251.603 240.229 251.576 240.045 251.56 239.864C250.965 232.741 249.072 225.651 245.16 223.064C243.328 221.856 241.16 221.781 238.701 222.84L238.637 222.867H238.568C236.541 223.176 230.909 225.192 228.501 226.12L226.219 226.997C223.528 228.037 220.747 229.109 217.907 230.179C218.173 232.432 218.691 235.245 219.416 238.811C219.488 239.157 219.555 239.507 219.621 239.856C219.659 240.037 219.693 240.219 219.731 240.403L219.835 240.936C220.123 242.443 220.387 243.965 220.635 245.501L220.723 246.035L220.811 246.581C223.803 265.675 224.107 286.509 224.112 304.963C224.685 304.931 225.712 304.851 226.989 304.744L227.533 304.707Z" fill="#2F2F2F"/>
<path d="M306.133 281.88L306.619 281.613L307.099 281.36L309.971 279.84C309.816 279.243 309.608 278.661 309.349 278.101C309.216 277.789 309.059 277.427 308.869 277.008C307.325 273.605 303.723 266.469 295.421 251.523C294.525 249.907 293.603 248.253 292.664 246.579L292.357 246.032L292.051 245.499C291.204 243.991 290.347 242.469 289.477 240.933L289.168 240.4L288.859 239.853C282.408 228.469 275.541 216.635 270.075 207.52C269.792 207.045 269.513 206.573 269.237 206.104C267.803 203.672 266.435 201.355 264.547 199.36C264.237 199.032 263.909 198.712 263.568 198.403C259.965 195.136 254.501 192.952 244.101 192.952H243.957C235.203 192.971 217.539 193.059 199.715 193.187H199.12H198.525C189.957 193.248 181.397 193.323 173.819 193.403L173.851 192.869L173.867 192.603H173.629L173.541 192.336C173.008 190.757 172.397 189.048 171.768 187.248C169.368 180.389 166.64 172.616 165.101 167.011C164.765 165.792 163.48 162.144 162.101 158.304L188.533 168.909C189.312 170.859 193.867 182.219 198.045 192.091H198.64H199.235C195.472 183.245 191.357 173.024 189.952 169.517C190.677 169.877 192.171 170.499 195.691 171.651C216.797 178.549 223.592 174.901 225.576 170.627C227.477 166.533 225.659 159.987 220.589 152.661C215.816 145.741 208.709 138.987 201.6 134.587C199.531 133.309 196.979 131.488 194.024 129.379C187.851 124.971 180.171 119.488 172.869 116.181C168.507 114.203 164.741 113.208 161.525 113.189V112.091C161.522 111.576 161.315 111.084 160.951 110.722C160.586 110.359 160.093 110.155 159.579 110.155L152.877 110.189C152.856 109.816 152.824 109.453 152.792 109.099C152.752 108.664 152.715 108.253 152.701 107.84V107.813C152.656 106.523 152.608 105.187 153.792 104.12C157.032 101.208 159.069 98.1147 158.499 92.4853C158.232 89.7067 157.205 86.352 156.133 82.7973C155.416 80.416 154.677 77.9627 154.16 75.664C154.005 75.6827 153.824 75.7013 153.627 75.7173C153.461 75.7173 153.277 75.7387 153.072 75.7467C152.568 75.7653 151.939 75.7733 151.152 75.7707H149.936C147.213 75.7707 141.544 75.736 140.045 76.0373C139.872 76.072 139.675 76.0987 139.445 76.128C137.459 76.3947 135.712 76.8827 135.963 79.92C136.109 81.6107 135.899 82.6427 135.28 83.2693C134.501 84.0693 133.307 83.9653 131.923 83.8613C131.696 83.8453 131.464 83.8267 131.224 83.8133C130.793 83.7726 130.358 83.8376 129.957 84.0027C129.768 84.0908 129.6 84.2181 129.464 84.376C129.279 84.6004 129.158 84.8702 129.112 85.1573L129.04 85.144C129.507 87.9093 130.107 91.2133 130.779 93.92C131.352 96.2507 132.853 98.72 133.493 99.544C135.456 102.093 135.712 106.947 135.893 110.157C135.893 110.2 135.893 110.237 135.893 110.277L128.496 110.315C128.068 110.319 127.654 110.464 127.317 110.727C126.98 110.99 126.738 111.357 126.629 111.771C119.051 110.629 111.235 116.496 103.267 123.272C100.637 125.507 97.4854 127.923 94.704 130.053C91.8427 132.248 89.3707 134.141 87.8534 135.523C74.3654 147.749 67.976 157.333 68.2667 164.832C68.4054 168.333 70.0507 171.331 73.16 173.741C77.6 177.189 83.4667 179.2 89.8133 180.376C84 180.968 78.2773 182.88 74.6907 187.2C70.12 192.688 69.624 209.243 68.824 236.669C68.6853 241.451 68.5387 246.392 68.36 251.709V328.509H69.4534V278.112H118.075V328.488H119.168V251.688C119.168 250.547 119.168 248.792 119.128 246.579H219.704C219.677 246.395 219.645 246.213 219.616 246.032C219.587 245.851 219.56 245.667 219.531 245.499H119.112C119.093 244.115 119.067 242.584 119.032 240.933H164.043C163.443 240.837 162.848 240.731 162.261 240.608C161.92 240.536 161.584 240.464 161.251 240.387C160.527 240.218 159.816 240.036 159.117 239.84H119.008C118.856 232.907 118.571 224.12 118.061 215.573C116.552 190.2 114.261 185.507 112.576 184.613C111.968 183.483 109.44 182.549 107.413 181.963C110.715 182.037 113.912 182.032 116.875 182.027C121.344 182.027 125.232 182.011 128.28 182.261L130.667 194.413L130.933 194.317C131.016 194.29 131.099 194.268 131.184 194.251C131.307 194.221 131.48 194.184 131.717 194.139L129.411 182.352L122.467 146.816C122.443 146.603 122.325 146.016 121.821 143.517L121.237 140.533V140.632C120.805 138.48 120.381 136.304 120.379 135.971H119.285C119.285 136.504 119.872 139.437 120.699 143.488C120.875 144.344 121.051 145.216 121.181 145.869C120.896 146.936 114.76 151.171 111.456 153.459C109.667 154.699 108.096 155.784 107.288 156.429L104.888 156.392C99.6107 156.323 93.0427 156.235 90.5573 155.373L90.1973 156.408C92.8507 157.325 99.5173 157.416 104.864 157.488C105.645 157.488 106.392 157.507 107.096 157.52C107.299 157.619 107.723 157.624 108.803 157.635C109.672 157.635 110.877 157.648 112.235 157.653C115.989 157.653 122.101 157.685 123.501 157.864L128.051 181.131C125.008 180.901 121.208 180.909 116.851 180.917C111.811 180.917 106.088 180.933 100.344 180.544C99.12 180.395 97.832 180.277 96.5067 180.219C87.8987 179.336 79.5787 177.347 73.8133 172.875C70.9707 170.672 69.4667 167.949 69.3413 164.784C69.0747 157.731 75.5173 148.157 88.5173 136.331C90 134.981 92.456 133.101 95.2987 130.923C98.0907 128.789 101.253 126.36 103.901 124.107C108.419 120.267 113.656 116 118.669 113.973C121.464 112.853 124.059 112.485 126.496 112.872L126.579 128.355C126.582 128.869 126.789 129.361 127.153 129.724C127.518 130.086 128.011 130.29 128.525 130.291L141.715 130.221L141.624 130.184L141.821 129.675L142.016 129.163C142.328 129.283 142.632 129.429 142.933 129.565L143.141 129.667L143.517 129.864C143.723 129.973 143.928 130.085 144.131 130.203L144.901 130.648C146.739 131.715 148.635 132.835 151.205 132.835V133.928C148.341 133.928 146.221 132.688 144.349 131.595C143.925 131.347 143.512 131.107 143.101 130.883C142.939 130.795 142.776 130.709 142.611 130.616C142.445 130.523 142.283 130.456 142.117 130.381C142.054 130.489 141.999 130.603 141.955 130.72C141.515 131.904 142.043 133.456 143.555 135.451C143.795 135.544 144.088 135.661 144.443 135.808L144.528 135.843L145.125 136.085C147.595 137.085 151.592 138.581 155.475 138.581H156.045V139.675H155.475C151.928 139.675 148.349 138.512 145.803 137.541C145.408 137.389 145.04 137.243 144.699 137.104L144.027 136.837L143.904 136.787C144.035 137.219 144.456 137.749 145.256 138.549C145.28 138.611 145.317 138.723 145.347 138.816C145.8 140.187 147.179 144.355 154.464 146.307C156.464 146.84 165.365 149.539 166.928 150.347L161.365 156.387C160.811 154.848 160.261 153.336 159.765 151.995C159.896 151.728 159.728 151.403 159.475 151.195C158.813 149.371 158.28 147.901 158.232 147.728L157.699 147.861L157.165 147.912C157.165 148.027 157.165 148.048 158.456 151.568C158.272 152.003 158.496 152.416 158.723 152.405H158.755C159.288 153.843 159.896 155.552 160.525 157.299L160.285 157.565L160.675 157.723C162.147 161.811 163.629 165.989 163.979 167.264C165.528 172.907 168.259 180.699 170.667 187.576C171.253 189.243 171.811 190.835 172.323 192.312C172.384 192.496 172.448 192.677 172.509 192.845C172.571 193.013 172.635 193.208 172.696 193.379C160.987 193.504 151.781 193.645 148.811 193.787C137.491 194.32 133.285 194.915 131.869 195.179L131.603 195.232C131.603 195.739 131.603 196.259 131.627 196.789C131.659 198.032 131.725 199.339 131.832 200.691C132.984 215.091 139.003 234.645 162.424 239.504C162.957 239.619 163.52 239.717 164.077 239.808C166.273 240.152 168.49 240.335 170.712 240.355H172.021C174.568 240.316 177.111 240.133 179.637 239.808C191.619 238.299 204.664 233.907 216.68 229.408L217.213 229.211L217.747 229.013C220.488 227.979 223.176 226.941 225.779 225.939L228.059 225.059C229.984 224.317 235.949 222.139 238.285 221.757C239.427 221.249 240.66 220.976 241.909 220.957C243.283 220.949 244.627 221.359 245.763 222.133C248.792 224.133 250.693 228.512 251.763 233.557C251.96 234.499 252.131 235.461 252.275 236.437C252.44 237.565 252.568 238.707 252.664 239.848C252.664 240.029 252.693 240.213 252.707 240.395L252.747 240.928C252.803 241.8 252.84 242.667 252.861 243.523C252.874 244.079 252.88 244.631 252.88 245.179V245.213C252.883 245.303 252.895 245.392 252.915 245.48C252.956 245.662 253.013 245.84 253.083 246.013C253.147 246.179 253.227 246.363 253.32 246.56C254.36 248.741 257.168 252.763 260.944 257.725C261.299 258.192 261.664 258.669 262.037 259.152C266.165 264.515 271.261 270.803 276.408 276.989C276.712 277.355 277.013 277.72 277.317 278.083C281.163 282.691 285.003 287.208 288.456 291.203L290.4 290.173L290.891 289.907L291.381 289.64L306.133 281.88ZM184.32 165.531V165.6C184.242 165.709 184.188 165.834 184.163 165.965L167.504 159.269C168.037 158.888 168.856 158.019 170.528 156.187C171.488 155.12 172.573 153.941 172.955 153.68C175.669 151.813 178.539 147.984 180.845 144.909C182.219 143.077 183.512 141.341 184.339 140.659C188.923 142.931 195.064 145.795 196.544 146.045C196.544 146.333 196.712 146.552 196.88 146.544C199.253 146.443 197.077 144.312 196.72 145.432L196.693 144.973C195.467 144.907 182.053 138.517 179.827 137.067L179.44 136.816L178.107 138.253L177.96 138.037C177.821 137.827 177.621 137.771 177.344 137.715C174.107 136.965 170.933 133.867 167.899 128.515C167.739 128.232 167.336 127.168 166.909 126.045C165.976 123.587 164.813 120.525 163.976 119.448C163.443 118.739 162.883 118.381 162.299 118.323C162.037 118.303 161.775 118.35 161.536 118.459L161.512 114.312C168.595 114.349 177.536 119.427 185.477 124.755C185.438 124.809 185.408 124.871 185.389 124.936V125.011C185.037 125.507 185.291 126.048 185.557 126.035C186.272 126.005 186.571 125.789 186.624 125.536C189.003 127.155 191.275 128.779 193.363 130.267C196.333 132.4 198.899 134.219 201 135.517C207.997 139.843 214.981 146.48 219.683 153.272C224.533 160.267 226.325 166.424 224.592 170.155C222.051 175.629 211.909 175.787 196.037 170.6C191.112 169 190.285 168.467 189.933 168.24C189.668 168.059 189.362 167.948 189.043 167.917H188.981L185.317 166.443C186.187 165.907 184.608 164.571 184.32 165.531ZM118.075 251.699V277.019H69.456V251.717C69.5147 249.971 69.5707 248.267 69.624 246.589H118.035C118.061 248.8 118.075 250.557 118.075 251.699ZM118.019 245.496H69.8667V240.931H117.939C117.973 242.581 118 244.112 118.019 245.496ZM105.219 182.501C109.803 183.568 111.541 184.757 111.632 185.133L111.699 185.427L111.987 185.525C112.971 185.867 115.427 189.483 116.979 215.627C117.488 224.16 117.779 232.923 117.925 239.837H69.8293C69.8596 238.771 69.8898 237.722 69.92 236.691C70.6934 210.435 71.2027 193.088 75.52 187.891C80.2214 182.243 88.912 180.957 96.4107 181.312C97.6836 181.444 98.9591 181.552 100.237 181.637C101.908 181.837 103.568 182.125 105.208 182.501H105.219ZM112.261 156.563H110.971C110.437 156.525 109.787 156.499 109.072 156.477C109.872 155.893 110.939 155.163 112.091 154.365C117.144 150.867 120.128 148.704 121.456 147.307L123.304 156.76C122.011 156.637 119.112 156.584 112.251 156.563H112.261ZM128.563 129.213C128.337 129.214 128.119 129.125 127.958 128.966C127.798 128.808 127.706 128.591 127.704 128.365L127.624 113.117V112.539V112.272C127.624 112.175 127.641 112.078 127.675 111.987C127.733 111.82 127.841 111.676 127.984 111.574C128.127 111.471 128.299 111.415 128.475 111.413L135.941 111.376H136.488H137.037L151.797 111.299H152.888L159.587 111.264C159.812 111.265 160.028 111.354 160.187 111.513C160.347 111.672 160.438 111.887 160.44 112.112V113.24V114.365L160.464 118.792L160.344 118.827L160.467 119.331L160.499 125.464C160.387 125.755 160.237 126.03 160.051 126.28C159.547 126.947 158.824 127.285 157.84 127.32C155.509 127.403 150.955 126.059 147.296 124.979C145.027 124.312 143.064 123.733 141.768 123.507C140.059 123.211 139.269 124.04 139.101 124.84C138.835 126.245 140.107 128.04 142.72 129.147L128.563 129.213ZM179.643 138.235C180.349 138.635 181.68 139.328 183.299 140.139C182.421 140.997 181.309 142.48 179.979 144.256C177.72 147.267 174.912 151.013 172.344 152.789C171.891 153.101 171.053 154.005 169.728 155.456C168.699 156.587 167.144 158.293 166.755 158.469C166.805 158.451 166.859 158.445 166.912 158.451L166.867 159.016L162.232 157.149L179.643 138.235ZM139.261 75.048C139.469 75.0187 139.651 74.9947 139.795 74.968C141.395 74.64 146.936 74.6613 149.909 74.6747H151.123C151.824 74.6747 152.371 74.6747 152.803 74.656C153.016 74.656 153.2 74.6427 153.36 74.6347C153.592 74.6213 153.771 74.6053 153.909 74.5893C152.277 67.056 144.392 63.9227 137.643 65.256C132.179 66.3227 126.4 70.7173 128.104 79.5227C128.133 79.6667 128.203 80.1173 128.299 80.744C128.408 81.4453 128.565 82.4053 128.739 83.5147C128.886 83.3691 129.051 83.2427 129.229 83.1387C129.394 83.0431 129.567 82.9636 129.747 82.9013C130.234 82.7446 130.748 82.6831 131.259 82.72L131.973 82.7707C133.133 82.8587 134.048 82.928 134.469 82.504C134.829 82.1413 134.955 81.304 134.84 80.0187C134.456 75.6853 137.821 75.2373 139.261 75.048Z" fill="#2F2F2F"/>
<path d="M156 115.611C156.127 115.735 156.281 115.827 156.45 115.881C156.619 115.936 156.798 115.95 156.973 115.923C157.265 115.895 157.537 115.761 157.737 115.547C157.938 115.333 158.053 115.053 158.061 114.76C158.061 114.747 158.061 114.736 158.061 114.725C158.048 114.548 157.983 114.378 157.875 114.237C157.718 114.037 157.495 113.899 157.245 113.848C156.992 113.799 156.729 113.826 156.492 113.928C156.254 114.029 156.052 114.199 155.912 114.416C155.794 114.599 155.737 114.815 155.749 115.032C155.749 115.064 155.763 115.091 155.768 115.123C155.795 115.305 155.876 115.475 156 115.611Z" fill="#2F2F2F"/>
<path d="M347.053 284.981C344.347 285.907 339.699 285.704 334.312 285.472C330.781 285.317 326.845 285.152 322.925 285.275L322.952 285.253C323.155 285.091 323.371 284.947 323.597 284.821L323.821 284.701C324.168 284.512 324.501 284.325 324.816 284.141C329.405 281.456 330.416 279.224 329.821 278.072C329.259 277.005 327.6 276.963 325.592 277.992C324.182 278.73 322.963 279.787 322.032 281.077C322.336 277.099 321.003 274.861 319.573 274.115C319.129 273.856 318.61 273.756 318.101 273.833C317.593 273.909 317.125 274.156 316.776 274.533C315.629 275.763 315.349 278.613 318 282.933C318.222 283.316 318.41 283.718 318.563 284.133C318.589 284.195 318.613 284.253 318.637 284.315C318.717 284.512 318.8 284.701 318.888 284.872C318.992 285.084 319.139 285.272 319.32 285.424C318.178 285.417 317.038 285.309 315.915 285.101C314.581 284.885 313.464 284.707 311.747 285.2C311.408 285.299 311.045 285.421 310.653 285.576C310.325 285.707 309.976 285.859 309.603 286.035C309.443 286.109 309.277 286.189 309.107 286.275L308.621 286.523C306.488 287.64 303.643 289.456 299.571 292.36C299.328 292.531 298.549 293.021 297.565 293.64C296.912 294.051 296.04 294.6 295.301 295.072C295.139 295.176 294.984 295.275 294.84 295.371L294.381 295.672L294.205 295.792C294.899 296.72 296.155 298.576 297.672 300.824C300.781 305.416 306.523 313.891 307.835 314.597C308.424 314.395 309.435 313.973 310.648 313.424C311.004 313.264 311.368 313.093 311.741 312.912C312.573 312.515 313.445 312.075 314.299 311.611C318.053 309.579 318.856 308.493 318.856 308.224C318.827 308.125 318.712 307.837 318.608 307.581C317.667 305.243 316.76 302.672 317.928 301.752C318.787 301.075 320.291 301.571 322.808 303.352C323.523 303.861 326.045 304.056 334.928 299.661C340.659 296.827 346.856 293.171 350.56 290.987C351.683 290.325 352.573 289.8 353.131 289.485C353.397 289.187 353.629 287.352 352.76 285.955C351.781 284.381 349.805 284.043 347.053 284.981ZM317.576 275.28C317.762 275.078 318.014 274.948 318.286 274.912C318.558 274.877 318.835 274.938 319.067 275.085C320.168 275.661 321.733 278.056 320.584 283.379C320.517 283.685 320.464 283.912 320.421 284.083C320.395 284.157 320.373 284.229 320.355 284.296C320.323 284.403 320.301 284.513 320.288 284.624L320.12 284.411C320.068 284.452 320.013 284.49 319.955 284.523C319.908 284.459 319.868 284.391 319.835 284.32C319.749 284.147 319.656 283.915 319.568 283.725C319.392 283.252 319.175 282.796 318.92 282.36C316.749 278.805 316.677 276.243 317.576 275.28ZM320.656 285.376C320.717 285.333 320.768 285.293 320.803 285.264L320.736 285.181H320.837C321.104 285.181 321.24 285.083 321.355 284.789C321.407 284.655 321.45 284.517 321.483 284.376C321.499 284.333 321.517 284.285 321.533 284.237C321.96 283.133 323.253 280.419 326.091 278.968C327.616 278.187 328.675 278.24 328.851 278.581C329.133 279.115 328.077 281.211 323.085 283.859C322.9 283.958 322.722 284.069 322.552 284.192L322.285 284.389C322.212 284.45 322.134 284.506 322.053 284.557C322.102 284.54 322.154 284.533 322.206 284.538C322.258 284.544 322.307 284.56 322.352 284.587L321.88 284.765L321.373 284.957C321.421 285.091 321.488 285.217 321.573 285.331C321.267 285.333 320.96 285.357 320.656 285.376Z" fill="#2F2F2F"/>
<path d="M278.632 325.867C269.869 322.893 265.211 321.285 262.037 319.584C261.651 319.379 261.288 319.171 260.944 318.96C259.104 317.837 257.744 316.6 256.184 314.864L256.269 314.824L256.707 314.624L257.224 314.381C258.52 313.773 259.765 313.06 260.944 312.248V317.648C261.288 317.877 261.651 318.101 262.037 318.323V311.389C263.475 310.144 264.091 308.971 263.685 308.051C263.469 307.557 262.939 307.179 262.037 307.157V278.091H275.904L274.995 276.997H262.037V260.971C261.659 260.485 261.294 260.014 260.944 259.557V307.291C260.428 307.411 259.925 307.579 259.44 307.792C257.884 308.486 256.488 309.492 255.339 310.749C256.317 306.749 255.485 304.349 254.195 303.395C253.754 303.053 253.205 302.882 252.648 302.915C252.442 302.928 252.239 302.97 252.045 303.04C251.826 303.119 251.619 303.227 251.429 303.363L251.352 303.419C251.161 303.565 250.989 303.734 250.84 303.923C250.227 304.685 249.795 305.904 249.824 307.568C249.824 307.752 249.824 307.939 249.851 308.133C249.877 308.328 249.885 308.525 249.912 308.731C249.037 308.419 248.003 308.36 246.483 308.413L245.949 308.435L245.416 308.464L244.867 308.496C244.211 308.536 243.192 308.581 242.011 308.635C238.931 308.776 234.715 308.968 232.016 309.251C231.701 309.285 230.712 309.336 229.459 309.4L228.005 309.475L227.472 309.504L226.939 309.536C226.179 309.579 225.485 309.624 225.072 309.664C225.12 310.808 225.093 313.072 225.072 315.829C225.008 321.333 224.888 331.485 225.605 332.835C228.117 333.173 230.647 333.351 233.181 333.368C238.573 333.408 239.333 332.667 239.416 332.552C239.453 332.44 239.531 332.075 239.6 331.752C240.099 329.443 240.725 326.907 241.845 326.069C242.09 325.879 242.389 325.774 242.699 325.768C243.096 325.768 243.587 325.957 244.104 326.581C244.44 326.987 244.699 327.893 245.096 329.333C245.333 330.197 245.579 331.088 245.827 331.707C246.117 332.421 247.989 333.64 257.293 333.757C263.453 333.837 270.563 333.416 275.757 333.109C278.285 332.96 280.291 332.843 281.309 332.843C281.656 332.824 282.885 331.739 283.077 330.301C283.248 328.456 281.739 326.933 278.632 325.867ZM262.685 308.499C262.773 308.701 262.629 309.181 262.037 309.856V308.256C262.416 308.283 262.632 308.387 262.685 308.507V308.499ZM259.872 308.8C260.218 308.648 260.574 308.521 260.939 308.421V310.883C259.553 311.942 258.048 312.837 256.456 313.549C256.288 313.629 256.117 313.707 255.939 313.787L255.816 313.843C255.675 313.907 255.549 313.973 255.432 314.037C255.216 313.789 254.992 313.531 254.765 313.261C254.864 313.112 254.968 312.957 255.085 312.795C255.203 312.632 255.304 312.501 255.424 312.349C256.588 310.814 258.117 309.594 259.872 308.8ZM251.003 308.64C250.971 308.413 250.949 308.195 250.933 307.981C250.803 306.131 251.272 304.859 252.016 304.291C252.228 304.11 252.496 304.01 252.774 304.007C253.052 304.003 253.323 304.097 253.539 304.272C254.352 304.883 255.237 306.909 254.176 310.872C254.12 311.077 254.061 311.285 253.997 311.499C253.933 311.712 253.872 311.901 253.8 312.112C252.701 310.829 251.912 309.963 251.133 309.395C251.083 309.139 251.037 308.885 251.003 308.643V308.64Z" fill="#2F2F2F"/>
<path d="M290.733 173.387C292.304 174.053 294.045 174.72 295.973 175.371C299.955 176.728 305.987 178.28 309.592 179.208C311.213 179.624 312.493 179.955 312.824 180.069C313.251 180.23 313.701 180.32 314.157 180.336C314.361 180.35 314.566 180.316 314.755 180.238C314.944 180.16 315.113 180.039 315.248 179.885C316.224 178.693 314.624 175.861 311.936 171.336C310.827 169.469 309.776 167.701 309.224 166.413C308.099 163.792 306.024 160.44 303.592 156.547C299.075 149.299 293.459 140.28 292.747 133.203C292.363 129.371 290.285 126.269 287.192 124.883C284.643 123.747 281.885 123.973 279.813 125.493C278.325 126.584 277.339 128.235 276.88 130.293C275.323 131.627 273.557 133.547 273.68 134.539C273.731 134.915 274.032 135.315 274.72 135.315H275.253H276.107C276.323 135.315 276.536 135.315 276.749 135.315C277.347 140.851 277.083 145.541 276.848 149.691C276.349 158.443 276.003 164.6 284.315 170.032C284.539 173.499 284.992 178.485 285.149 180.165C278.419 180.4 271.424 182.171 267.283 187.16C265.683 189.088 264.576 192.387 263.789 197.043C264.127 197.329 264.452 197.623 264.763 197.925C265.52 193.125 266.579 189.715 268.125 187.859C274.904 179.715 289.971 180.643 297.803 182.472C302.387 183.539 304.125 184.728 304.203 185.104L304.269 185.397L304.555 185.496C305.539 185.837 307.995 189.453 309.549 215.597C310.056 224.131 310.349 232.893 310.496 239.808H290.112L290.421 240.355L290.731 240.888H310.048V245.453H293.301L293.608 245.987L293.915 246.533H310.613C310.643 248.747 310.653 250.501 310.653 251.643V276.963H310.045C310.227 277.379 310.376 277.741 310.501 278.056H310.653V278.451C311.208 279.931 311.085 280.189 311.003 280.363L310.925 280.525L310.659 280.669V284.344C311.051 284.203 311.411 284.077 311.752 284V251.699C311.752 246.824 311.555 230.824 310.648 215.56C309.139 190.187 306.848 185.493 305.163 184.6C304.363 183.088 300.096 181.933 298.208 181.477C295.618 180.876 292.985 180.481 290.333 180.296C290.379 179.496 290.419 178.763 290.456 178.048C290.536 176.443 290.613 174.981 290.733 173.387ZM275.267 134.251H274.811C274.992 133.763 275.765 132.859 276.632 132.005C276.829 131.811 277.032 131.619 277.235 131.432C277.437 131.245 277.667 131.045 277.875 130.872C278.207 130.58 278.563 130.318 278.941 130.088C279.112 130.248 279.283 130.4 279.451 130.549C280.136 131.163 280.731 131.691 281.051 132.48C281.235 132.928 281.141 133.149 281.051 133.28C280.627 133.904 279.141 134.141 277.717 134.224L277.168 134.251L276.635 134.264C276.099 134.261 275.613 134.256 275.269 134.251H275.267ZM286.243 180.171C286.107 178.699 285.696 174.205 285.443 170.773C286.806 171.569 288.212 172.287 289.656 172.925C289.517 174.683 289.435 176.248 289.344 177.992C289.304 178.704 289.267 179.443 289.221 180.232C288.267 180.179 287.256 180.157 286.245 180.171H286.243Z" fill="#2F2F2F"/>
<path d="M98.5546 142.424C98.522 142.561 98.4971 142.7 98.48 142.84C98.48 143.949 100.189 143.613 99.8693 142.589C99.648 141.88 98.7386 142.053 98.5546 142.424Z" fill="#2F2F2F"/>
<path d="M118.333 129.544C118.3 129.681 118.275 129.82 118.259 129.96C118.259 131.069 119.965 130.733 119.648 129.709C119.427 129 118.517 129.173 118.333 129.544Z" fill="#2F2F2F"/>
<path d="M187.757 135.659C187.722 135.795 187.696 135.934 187.68 136.075C187.68 137.184 189.389 136.848 189.069 135.827C188.848 135.115 187.941 135.288 187.757 135.659Z" fill="#2F2F2F"/>
<path d="M168.267 166.571C168.234 166.709 168.209 166.849 168.192 166.989C168.192 168.096 169.899 167.76 169.581 166.739C169.365 166.029 168.456 166.203 168.267 166.571Z" fill="#2F2F2F"/>
<path d="M185.923 181.299C185.887 181.436 185.861 181.576 185.845 181.717C185.845 182.827 187.555 182.488 187.235 181.467C187.013 180.757 186.104 180.931 185.923 181.299Z" fill="#2F2F2F"/>
<path d="M144.507 156.957C144.285 156.248 143.376 156.424 143.195 156.792C143.159 156.929 143.134 157.068 143.117 157.208C143.117 158.317 144.827 157.981 144.507 156.957Z" fill="#2F2F2F"/>
<path d="M82.592 160.104C82.5566 160.242 82.5308 160.381 82.5146 160.523C82.5146 161.629 84.224 161.293 83.904 160.272C83.6827 159.563 82.7733 159.733 82.592 160.104Z" fill="#2F2F2F"/>
<path d="M112.467 170.555C112.245 169.843 111.336 170.021 111.152 170.387C111.119 170.525 111.094 170.664 111.077 170.805C111.077 171.912 112.8 171.576 112.467 170.555Z" fill="#2F2F2F"/>
<path d="M146.299 142.968C146.077 142.259 145.168 142.435 144.984 142.803C144.951 142.94 144.926 143.079 144.909 143.219C144.909 144.328 146.619 144 146.299 142.968Z" fill="#2F2F2F"/>
<path d="M150.952 183.92C150.731 183.211 149.821 183.387 149.64 183.755C149.605 183.891 149.579 184.03 149.563 184.171C149.563 185.28 151.272 184.944 150.952 183.92Z" fill="#2F2F2F"/>
<path d="M104.88 176.445C104.659 175.733 103.749 175.912 103.565 176.277C103.533 176.414 103.508 176.553 103.491 176.693C103.491 177.803 105.197 177.467 104.88 176.445Z" fill="#2F2F2F"/>
<path d="M111.755 141.099V141.171C111.403 141.667 111.659 142.208 111.923 142.197C114.301 142.096 112.099 139.949 111.755 141.099Z" fill="#2F2F2F"/>
<path d="M214.053 154.024C216.437 153.923 214.235 151.776 213.891 152.925V152.997C213.533 153.493 213.789 154.035 214.053 154.024Z" fill="#2F2F2F"/>
<path d="M102.237 163.347V163.421C101.885 163.917 102.139 164.459 102.403 164.445C104.784 164.344 102.581 162.197 102.237 163.347Z" fill="#2F2F2F"/>
<path d="M191.603 157.683C193.984 157.581 191.781 155.435 191.437 156.584V156.656C191.083 157.152 191.339 157.693 191.603 157.683Z" fill="#2F2F2F"/>
<path d="M164.659 182.971V183.043C164.307 183.539 164.56 184.08 164.827 184.069C167.2 183.968 165.003 181.821 164.659 182.971Z" fill="#2F2F2F"/>
<path d="M107.512 152.213V152.285C107.16 152.781 107.413 153.323 107.68 153.312C110.059 153.208 107.856 151.061 107.512 152.213Z" fill="#2F2F2F"/>
<path d="M169.933 171.835V171.907C169.581 172.403 169.837 172.944 170.101 172.933C172.48 172.832 170.277 170.685 169.933 171.835Z" fill="#2F2F2F"/>
<path d="M96.1973 131.701V131.773C95.8453 132.269 96.1013 132.811 96.3653 132.8C98.7413 132.699 96.5333 130.552 96.1973 131.701Z" fill="#2F2F2F"/>
<path d="M216.899 162.605C219.283 162.504 217.08 160.357 216.736 161.507V161.581C216.381 162.077 216.635 162.619 216.899 162.605Z" fill="#2F2F2F"/>
<path d="M115.976 118.821V118.893C115.624 119.389 115.88 119.931 116.144 119.92C118.52 119.819 116.317 117.672 115.976 118.821Z" fill="#2F2F2F"/>
<path d="M140.835 146.069V146.133C140.483 146.629 140.736 147.171 141.003 147.16C143.381 147.067 141.179 144.92 140.835 146.069Z" fill="#2F2F2F"/>
<path d="M118.749 176.592C121.131 176.491 118.928 174.344 118.584 175.493V175.565C118.229 176.061 118.485 176.603 118.749 176.592Z" fill="#2F2F2F"/>
<path d="M95.12 172.296V172.368C94.768 172.864 95.0214 173.405 95.288 173.395C97.6667 173.293 95.4667 171.147 95.12 172.296Z" fill="#2F2F2F"/>
<path d="M78.376 171.6C80.7574 171.496 78.5547 169.352 78.2107 170.501V170.573C77.8667 171.069 78.1094 171.611 78.376 171.6Z" fill="#2F2F2F"/>
<path d="M135.979 149.171V149.243C135.624 149.739 135.88 150.28 136.144 150.269C138.523 150.168 136.323 148.021 135.979 149.171Z" fill="#2F2F2F"/>
<path d="M140.632 190.133V190.205C140.28 190.701 140.533 191.243 140.8 191.232C143.179 191.12 140.976 188.973 140.632 190.133Z" fill="#2F2F2F"/>
<path d="M77.3013 153.424V153.499C76.9493 153.995 77.2026 154.533 77.4693 154.523C79.848 154.421 77.6453 152.267 77.3013 153.424Z" fill="#2F2F2F"/>
<path d="M135.069 132.093V132.168C134.715 132.664 134.971 133.205 135.235 133.192C137.616 133.091 135.413 130.933 135.069 132.093Z" fill="#2F2F2F"/>
<path d="M139.733 173.048V173.12C139.381 173.616 139.635 174.157 139.901 174.147C142.269 174.043 140.067 171.896 139.733 173.048Z" fill="#2F2F2F"/>
<path d="M69.896 164.8L69.9654 164.824C70.352 165.293 70.9414 165.189 71 164.931C71.528 162.597 68.8774 164.157 69.896 164.8Z" fill="#2F2F2F"/>
<path d="M127.664 143.467L127.733 143.491C128.12 143.96 128.707 143.856 128.768 143.6C129.296 141.267 126.645 142.827 127.664 143.467Z" fill="#2F2F2F"/>
<path d="M179.179 172.08C179.565 172.552 180.155 172.448 180.213 172.189C180.747 169.864 178.08 171.424 179.109 172.059L179.179 172.08Z" fill="#2F2F2F"/>
<path d="M204.683 169.539L204.752 169.56C205.139 170.032 205.728 169.928 205.787 169.669C206.315 167.344 203.664 168.904 204.683 169.539Z" fill="#2F2F2F"/>
<path d="M105.741 131.835C105.045 131.979 105.443 133.883 106.64 132.901C107.029 132.587 107.029 131.568 105.741 131.835Z" fill="#2F2F2F"/>
<path d="M208.773 144.731C209.163 144.413 209.165 143.397 207.877 143.664C207.181 143.805 207.576 145.709 208.773 144.731Z" fill="#2F2F2F"/>
<path d="M174.84 131.576C174.144 131.72 174.539 133.627 175.736 132.643C176.125 132.328 176.128 131.309 174.84 131.576Z" fill="#2F2F2F"/>
<path d="M169.067 152.533C169.456 152.213 169.456 151.2 168.168 151.467C167.467 151.6 167.864 153.507 169.067 152.533Z" fill="#2F2F2F"/>
<path d="M85.232 141.835C84.536 141.981 84.9307 143.885 86.128 142.901C86.5174 142.589 86.52 141.571 85.232 141.835Z" fill="#2F2F2F"/>
<path d="M220.901 168.755C221.291 168.437 221.293 167.421 220.005 167.688C219.309 167.827 219.704 169.733 220.901 168.755Z" fill="#2F2F2F"/>
<path d="M169.6 121.224C168.904 121.368 169.299 123.275 170.496 122.291C170.885 121.976 170.888 120.957 169.6 121.224Z" fill="#2F2F2F"/>
<path d="M180.093 189.776C180.483 189.456 180.485 188.443 179.197 188.709C178.501 188.848 178.896 190.752 180.093 189.776Z" fill="#2F2F2F"/>
<path d="M148.549 162.531C148.939 162.211 148.941 161.197 147.653 161.464C146.957 161.6 147.352 163.509 148.549 162.531Z" fill="#2F2F2F"/>
<path d="M129.867 156.205C129.171 156.349 129.568 158.253 130.765 157.272C131.157 156.957 131.157 155.939 129.867 156.205Z" fill="#2F2F2F"/>
<path d="M96.224 154.083C95.528 154.227 95.9226 156.133 97.12 155.149C97.5093 154.835 97.512 153.816 96.224 154.083Z" fill="#2F2F2F"/>
<path d="M113.915 127.549C114.304 127.232 114.304 126.216 113.019 126.483C112.32 126.621 112.717 128.533 113.915 127.549Z" fill="#2F2F2F"/>
<path d="M186.323 148.389C186.712 148.072 186.712 147.056 185.427 147.323C184.728 147.467 185.125 149.368 186.323 148.389Z" fill="#2F2F2F"/>
<path d="M159.541 174.776C159.931 174.459 159.933 173.443 158.645 173.709C157.949 173.848 158.344 175.755 159.541 174.776Z" fill="#2F2F2F"/>
<path d="M117.461 162.933C116.765 163.077 117.163 164.984 118.36 164C118.749 163.693 118.749 162.667 117.461 162.933Z" fill="#2F2F2F"/>
<path d="M207.56 157.245C207.949 156.928 207.952 155.912 206.664 156.179C205.968 156.317 206.363 158.224 207.56 157.245Z" fill="#2F2F2F"/>
</svg>
