<svg width="72" height="72" viewBox="0 0 72 72" fill="none" xmlns="http://www.w3.org/2000/svg">
<path d="M41.94 33C41.94 33 60.165 29.85 60 19.5C59.886 12.528 52.521 9.93 50.925 15C50.925 15 49.41 9 44.874 9C40.335 9 35.874 18 41.943 33H41.94ZM39 41.94L39.186 42.867L39.429 43.917L39.654 44.787L39.93 45.771L40.26 46.845L40.443 47.409L40.86 48.585C42.78 53.775 46.383 60.096 52.5 60C59.472 59.886 62.07 52.521 57 50.925L57.444 50.79L57.939 50.616C58.0375 50.5783 58.1355 50.5393 58.233 50.499L58.899 50.205C60.657 49.365 63 47.709 63 44.874C63 40.335 54 35.874 39 41.943V41.94ZM30.06 39L29.133 39.186L28.083 39.429L27.213 39.654L26.229 39.93L25.155 40.26L24.591 40.443L23.415 40.86C18.225 42.78 11.904 46.38 12 52.5C12.114 59.472 19.479 62.07 21.075 57L21.21 57.444L21.384 57.939L21.501 58.233L21.795 58.899C22.635 60.657 24.291 63 27.126 63C31.665 63 36.126 54 30.057 39H30.06ZM33 30.06L32.814 29.133L32.571 28.083L32.346 27.213L32.07 26.229L31.74 25.155L31.356 24.009L30.912 22.812C28.938 17.751 25.38 11.91 19.5 12C12.528 12.114 9.93 19.479 15 21.075L14.556 21.21L14.064 21.384C13.9635 21.4217 13.8635 21.4607 13.764 21.501L13.104 21.795C11.34 22.635 9 24.291 9 27.126C9 31.665 18 36.126 33 30.057V30.06Z" stroke="black" stroke-width="4" stroke-linecap="round" stroke-linejoin="round"/>
</svg>
