<svg width="183" height="48" viewBox="0 0 183 48" fill="none" xmlns="http://www.w3.org/2000/svg">
<path d="M42.6275 20.7376C42.5575 20.5501 42.485 20.3651 42.41 20.1826C42.3825 20.1176 42.3575 20.0526 42.33 19.9876C39.8725 14.1726 35.43 12.2351 33.3575 11.6301C33.1825 11.6101 33.08 11.5826 33.08 11.5826V11.5951C31.5106 11.1383 29.8845 10.9051 28.25 10.9026H28.1775C26.5075 10.9026 24.8225 11.1451 23.2375 11.6201C17.1175 13.4301 14.66 18.3301 13.8375 20.5626C13.8275 20.6576 13.81 20.7151 13.81 20.7151H13.8125C13.265 22.1851 12.9275 23.7251 12.84 25.2476C12.6075 29.1976 13.3 33.1776 16.485 35.9251C18.2475 37.4451 20.44 38.4776 22.7 39.0351C23.56 39.2501 25.78 39.7426 28.1075 39.7426C30.435 39.7426 32.87 39.2501 33.73 39.0351C35.99 38.4776 38.1825 37.4451 39.9475 35.9251C43.13 33.1776 43.8225 29.2001 43.5925 25.2476C43.5025 23.7326 43.1675 22.2026 42.6275 20.7376Z" fill="#F1F1F1"/>
<path d="M25.61 25.98C25.87 24.68 25.2125 23.2 24.0425 22.5475C22.37 21.62 20.3475 21.9275 18.8475 23.0225C17.98 23.655 16.93 24.615 16.3775 25.545C15.41 27.18 15.2175 29.65 16.5025 31.235C17.3 32.2175 18.68 32.5775 19.8775 32.3575C21.29 32.095 22.2075 31.05 23.07 29.98C23.885 28.96 24.855 27.9775 25.3675 26.7575C25.475 26.5025 25.56 26.2425 25.61 25.98ZM22.3825 26.8825C21.5 26.8825 20.785 26.185 20.785 25.325C20.785 24.4625 21.5 23.7625 22.3825 23.7625C23.265 23.7625 23.9825 24.4625 23.9825 25.325C23.9825 26.185 23.2675 26.8825 22.3825 26.8825ZM39.9875 31.465C41.345 29.7875 41.1425 27.1775 40.1175 25.45C39.5375 24.4675 38.425 23.4525 37.51 22.785C35.9275 21.625 33.7875 21.3 32.0225 22.2825C30.78 22.9725 30.09 24.5375 30.365 25.91C30.4175 26.1875 30.51 26.4625 30.6175 26.73C31.1625 28.02 32.185 29.0575 33.05 30.1375C33.955 31.2675 34.93 32.37 36.42 32.6475C37.685 32.8825 39.1425 32.5 39.9875 31.465ZM33.83 26.8825C32.9475 26.8825 32.2325 26.185 32.2325 25.325C32.2325 24.4625 32.95 23.7625 33.83 23.7625C34.7125 23.7625 35.4275 24.4625 35.4275 25.325C35.4275 26.185 34.7125 26.8825 33.83 26.8825ZM30.8025 33.0725C30.7675 33.12 29.9825 34.2 28.135 34.2C26.3 34.2 25.5125 33.1275 25.4725 33.0725C25.3861 32.9467 25.2534 32.8603 25.1035 32.8322C24.9535 32.8041 24.7985 32.8365 24.6725 32.9225C24.5457 33.0085 24.4583 33.1413 24.4292 33.2917C24.4002 33.4421 24.4319 33.5979 24.5175 33.725C24.5625 33.7925 25.6525 35.355 28.1325 35.355C30.615 35.355 31.7075 33.79 31.7525 33.725C31.93 33.4625 31.865 33.1075 31.6025 32.9275C31.345 32.7475 30.985 32.815 30.8025 33.0725ZM28.1375 32.0675C29.5225 32.0675 30.6475 31.1625 30.6475 30.045C30.6475 28.9275 29.5225 28.0225 28.1375 28.0225C26.7525 28.0225 25.63 28.9275 25.63 30.045C25.63 31.1625 26.7525 32.0675 28.1375 32.0675ZM42.33 19.9875C42.315 19.9525 42.3025 19.9175 42.2875 19.8825V19.6275C42.335 19.3475 42.55 19.135 42.7125 18.91L42.8125 18.775C43.0425 18.4325 43.2225 18.06 43.38 17.68C44.115 15.93 44.135 13.975 43.21 12.5425C42.555 11.53 39.9675 8.90248 35.885 11.125C34.815 11.7075 33.825 11.685 33.36 11.63C35.43 12.235 39.8725 14.175 42.33 19.9875ZM23.2375 11.62C23.12 11.655 23 11.69 22.8825 11.7275C22.6525 11.7775 21.455 11.9825 20.1275 11.26C16.045 9.03998 13.455 11.665 12.8 12.6775C12.5175 13.1175 12.3075 13.6475 12.1975 14.1525C11.995 15.11 12.075 16.175 12.37 17.1075C12.5275 17.6075 12.76 18.075 13.005 18.54C13.1625 18.8475 13.3275 19.1525 13.53 19.4375C13.86 19.9 13.865 20.34 13.84 20.5625C14.66 18.33 17.1175 13.43 23.2375 11.62Z" fill="#2F2F2F"/>
<path d="M61.16 33.2799C58.64 33.2799 56.6933 32.6399 55.32 31.3599C53.96 30.0799 53.28 28.0332 53.28 25.2199C53.28 19.8466 55.8933 17.1599 61.12 17.1599C62.3867 17.1599 63.56 17.3132 64.64 17.6199C65.7333 17.9266 66.5467 18.2666 67.08 18.6399V23.6399H62.28V22.1999C62.28 21.6932 62.1667 21.3199 61.94 21.0799C61.7133 20.8399 61.3733 20.7199 60.92 20.7199C60.4667 20.7199 60.1267 20.8399 59.9 21.0799C59.6733 21.3199 59.56 21.6932 59.56 22.1999V28.2399C59.56 28.7466 59.6733 29.1199 59.9 29.3599C60.1267 29.5999 60.4667 29.7199 60.92 29.7199C61.3733 29.7199 61.7133 29.5999 61.94 29.3599C62.1667 29.1199 62.28 28.7466 62.28 28.2399V26.6199H67.08V31.7999C66.5333 32.1732 65.72 32.5132 64.64 32.8199C63.5733 33.1266 62.4133 33.2799 61.16 33.2799Z" fill="#2F2F2F"/>
<path d="M81.8736 29.7199V32.9999H75.5536V29.7199H76.3936V26.4399C76.3936 25.9999 76.3003 25.6799 76.1136 25.4799C75.9269 25.2666 75.6469 25.1599 75.2736 25.1599C74.4736 25.1599 74.0736 25.5866 74.0736 26.4399V29.7199H74.9136V32.9999H68.5936V29.7199H69.4736V20.7199H68.5936V17.4399H74.0736V23.4399C74.5669 22.8266 75.1003 22.3666 75.6736 22.0599C76.2469 21.7532 76.9136 21.5999 77.6736 21.5999C78.7803 21.5999 79.6069 21.9466 80.1536 22.6399C80.7136 23.3332 80.9936 24.2866 80.9936 25.4999V29.7199H81.8736Z" fill="#2F2F2F"/>
<path d="M84.2794 20.7799V17.4399H88.3594V20.7799H84.2794ZM83.3194 32.9999V29.7199H84.1994V25.1599H83.3194V21.8799H88.7994V29.7199H89.6794V32.9999H83.3194Z" fill="#2F2F2F"/>
<path d="M91.0334 33.0199V29.7199H91.9134V20.7199H91.0334V17.4399H96.5134V29.7199H97.3934V33.0199H91.0334Z" fill="#2F2F2F"/>
<path d="M98.8256 33.0199V29.7199H99.7056V20.7199H98.8256V17.4399H104.306V29.7199H105.186V33.0199H98.8256Z" fill="#2F2F2F"/>
<path d="M111.684 18.7227C113.526 18.7227 114.87 19.084 115.717 19.8066C116.57 20.5228 116.996 21.5514 116.996 22.8926C116.996 23.498 116.895 24.0742 116.693 24.6211C116.498 25.1615 116.179 25.64 115.736 26.0566C115.294 26.4668 114.711 26.7923 113.988 27.0332C113.272 27.2676 112.393 27.3848 111.352 27.3848H109.613V33H107.953V18.7227H111.684ZM111.527 20.1387H109.613V25.959H111.166C112.077 25.959 112.836 25.8613 113.441 25.666C114.053 25.4707 114.512 25.1549 114.818 24.7188C115.124 24.276 115.277 23.6901 115.277 22.9609C115.277 22.0104 114.975 21.304 114.369 20.8418C113.764 20.373 112.816 20.1387 111.527 20.1387Z" fill="#2F2F2F"/>
<path d="M123.744 22.1211C125.02 22.1211 125.967 22.4076 126.586 22.9805C127.204 23.5534 127.514 24.4681 127.514 25.7246V33H126.332L126.02 31.418H125.941C125.642 31.8086 125.329 32.1374 125.004 32.4043C124.678 32.6647 124.301 32.8633 123.871 33C123.448 33.1302 122.927 33.1953 122.309 33.1953C121.658 33.1953 121.078 33.0814 120.57 32.8535C120.069 32.6257 119.672 32.2806 119.379 31.8184C119.092 31.3561 118.949 30.7702 118.949 30.0605C118.949 28.9928 119.372 28.1725 120.219 27.5996C121.065 27.0267 122.354 26.7142 124.086 26.6621L125.932 26.584V25.9297C125.932 25.0052 125.733 24.3574 125.336 23.9863C124.939 23.6152 124.379 23.4297 123.656 23.4297C123.096 23.4297 122.562 23.5111 122.055 23.6738C121.547 23.8366 121.065 24.0286 120.609 24.25L120.111 23.0195C120.593 22.7721 121.146 22.5605 121.771 22.3848C122.396 22.209 123.054 22.1211 123.744 22.1211ZM125.912 27.7266L124.281 27.7949C122.947 27.847 122.006 28.0651 121.459 28.4492C120.912 28.8333 120.639 29.377 120.639 30.0801C120.639 30.6921 120.824 31.1445 121.195 31.4375C121.566 31.7305 122.058 31.877 122.67 31.877C123.62 31.877 124.398 31.6133 125.004 31.0859C125.609 30.5586 125.912 29.7676 125.912 28.7129V27.7266Z" fill="#2F2F2F"/>
<path d="M135.922 22.1016C137.191 22.1016 138.152 22.4141 138.803 23.0391C139.454 23.6576 139.779 24.6536 139.779 26.0273V33H138.178V26.1348C138.178 25.2428 137.973 24.5755 137.562 24.1328C137.159 23.6901 136.537 23.4688 135.697 23.4688C134.512 23.4688 133.679 23.804 133.197 24.4746C132.715 25.1452 132.475 26.1185 132.475 27.3945V33H130.854V22.2969H132.162L132.406 23.8398H132.494C132.722 23.4622 133.012 23.1465 133.363 22.8926C133.715 22.6322 134.109 22.4368 134.545 22.3066C134.981 22.1699 135.44 22.1016 135.922 22.1016Z" fill="#2F2F2F"/>
<path d="M146.928 33.1953C145.574 33.1953 144.499 32.7331 143.705 31.8086C142.917 30.8841 142.523 29.5104 142.523 27.6875C142.523 25.8451 142.927 24.4551 143.734 23.5176C144.542 22.5736 145.616 22.1016 146.957 22.1016C147.523 22.1016 148.018 22.1764 148.441 22.3262C148.865 22.4759 149.229 22.6777 149.535 22.9316C149.841 23.179 150.098 23.4622 150.307 23.7812H150.424C150.398 23.5794 150.372 23.3027 150.346 22.9512C150.32 22.5996 150.307 22.3132 150.307 22.0918V17.8047H151.928V33H150.619L150.375 31.4766H150.307C150.105 31.7956 149.848 32.0853 149.535 32.3457C149.229 32.6061 148.861 32.8145 148.432 32.9707C148.008 33.1204 147.507 33.1953 146.928 33.1953ZM147.182 31.8477C148.327 31.8477 149.138 31.5221 149.613 30.8711C150.089 30.2201 150.326 29.2533 150.326 27.9707V27.6777C150.326 26.3171 150.098 25.2721 149.643 24.543C149.193 23.8138 148.373 23.4492 147.182 23.4492C146.186 23.4492 145.44 23.8333 144.945 24.6016C144.451 25.3633 144.203 26.4049 144.203 27.7266C144.203 29.0417 144.447 30.0573 144.936 30.7734C145.43 31.4896 146.179 31.8477 147.182 31.8477Z" fill="#2F2F2F"/>
<path d="M159.369 22.1211C160.645 22.1211 161.592 22.4076 162.211 22.9805C162.829 23.5534 163.139 24.4681 163.139 25.7246V33H161.957L161.645 31.418H161.566C161.267 31.8086 160.954 32.1374 160.629 32.4043C160.303 32.6647 159.926 32.8633 159.496 33C159.073 33.1302 158.552 33.1953 157.934 33.1953C157.283 33.1953 156.703 33.0814 156.195 32.8535C155.694 32.6257 155.297 32.2806 155.004 31.8184C154.717 31.3561 154.574 30.7702 154.574 30.0605C154.574 28.9928 154.997 28.1725 155.844 27.5996C156.69 27.0267 157.979 26.7142 159.711 26.6621L161.557 26.584V25.9297C161.557 25.0052 161.358 24.3574 160.961 23.9863C160.564 23.6152 160.004 23.4297 159.281 23.4297C158.721 23.4297 158.188 23.5111 157.68 23.6738C157.172 23.8366 156.69 24.0286 156.234 24.25L155.736 23.0195C156.218 22.7721 156.771 22.5605 157.396 22.3848C158.021 22.209 158.679 22.1211 159.369 22.1211ZM161.537 27.7266L159.906 27.7949C158.572 27.847 157.631 28.0651 157.084 28.4492C156.537 28.8333 156.264 29.377 156.264 30.0801C156.264 30.6921 156.449 31.1445 156.82 31.4375C157.191 31.7305 157.683 31.877 158.295 31.877C159.245 31.877 160.023 31.6133 160.629 31.0859C161.234 30.5586 161.537 29.7676 161.537 28.7129V27.7266Z" fill="#2F2F2F"/>
</svg>
