<?xml version="1.0" standalone="no"?>
<!DOCTYPE svg PUBLIC "-//W3C//DTD SVG 20010904//EN"
 "http://www.w3.org/TR/2001/REC-SVG-20010904/DTD/svg10.dtd">
<svg version="1.0" xmlns="http://www.w3.org/2000/svg"
 width="180.000000pt" height="180.000000pt" viewBox="0 0 180.000000 180.000000"
 preserveAspectRatio="xMidYMid meet">
<metadata>
Created by potrace 1.14, written by Peter Selinger 2001-2017
</metadata>
<g transform="translate(0.000000,180.000000) scale(0.100000,-0.100000)"
fill="#000000" stroke="none">
<path d="M880 1575 c0 -88 1 -95 20 -95 19 0 20 7 20 95 0 88 -1 95 -20 95
-19 0 -20 -7 -20 -95z"/>
<path d="M504 1557 c-8 -22 75 -157 97 -157 28 0 24 24 -18 101 -37 67 -66 88
-79 56z"/>
<path d="M1237 1533 c-59 -94 -70 -133 -38 -133 12 0 32 23 60 71 22 40 41 78
41 85 0 29 -40 14 -63 -23z"/>
<path d="M232 1278 c2 -16 23 -34 68 -60 72 -42 100 -48 100 -19 0 12 -23 32
-71 60 -82 47 -102 51 -97 19z"/>
<path d="M1468 1258 c-46 -27 -68 -46 -68 -59 0 -28 24 -24 101 19 54 29 69
41 67 57 -4 31 -27 27 -100 -17z"/>
<path d="M1088 1223 c-27 -9 -48 -19 -48 -22 0 -3 21 -17 46 -31 41 -21 94
-77 131 -136 10 -17 12 -16 27 18 18 42 21 100 6 127 -25 48 -95 67 -162 44z"/>
<path d="M574 1196 c-28 -28 -34 -42 -34 -75 0 -38 26 -111 40 -111 3 0 13 15
22 33 25 51 67 96 120 126 l49 28 -44 17 c-70 27 -113 22 -153 -18z"/>
<path d="M715 956 c-66 -29 -111 -118 -87 -171 16 -36 57 -58 89 -50 44 11
133 116 133 157 0 27 -42 68 -75 73 -16 3 -44 -1 -60 -9z m85 -41 c20 -25 8
-50 -25 -50 -24 0 -31 5 -33 24 -6 37 34 55 58 26z"/>
<path d="M983 955 c-29 -20 -38 -66 -20 -102 8 -15 35 -49 59 -75 38 -41 50
-48 82 -48 50 0 86 36 86 85 0 46 -20 84 -65 124 -28 24 -45 31 -78 31 -23 0
-52 -7 -64 -15z m73 -39 c15 -12 17 -18 8 -33 -16 -26 -50 -28 -63 -4 -8 15
-7 23 5 35 19 20 25 20 50 2z"/>
<path d="M130 900 c0 -19 7 -20 95 -20 88 0 95 1 95 20 0 19 -7 20 -95 20 -88
0 -95 -1 -95 -20z"/>
<path d="M1480 900 c0 -19 7 -20 95 -20 88 0 95 1 95 20 0 19 -7 20 -95 20
-88 0 -95 -1 -95 -20z"/>
<path d="M862 818 c-40 -40 15 -96 66 -67 33 18 39 41 17 63 -19 19 -66 21
-83 4z"/>
<path d="M820 711 c0 -18 44 -41 77 -41 38 0 80 17 87 36 7 18 -5 18 -40 -1
-36 -19 -55 -19 -80 0 -22 16 -44 19 -44 6z"/>
<path d="M298 582 c-66 -36 -87 -65 -55 -78 22 -8 157 75 157 97 0 28 -26 23
-102 -19z"/>
<path d="M1400 601 c0 -12 23 -32 71 -60 82 -47 102 -51 97 -19 -2 16 -23 34
-68 60 -72 42 -100 48 -100 19z"/>
<path d="M541 329 c-47 -82 -51 -102 -19 -97 16 2 34 23 60 68 42 72 48 100
19 100 -12 0 -32 -23 -60 -71z"/>
<path d="M1180 384 c0 -31 74 -154 93 -154 32 0 28 26 -13 98 -29 50 -48 72
-61 72 -11 0 -19 -7 -19 -16z"/>
<path d="M880 225 c0 -88 1 -95 20 -95 19 0 20 7 20 95 0 88 -1 95 -20 95 -19
0 -20 -7 -20 -95z"/>
</g>
</svg>
