<svg width="72" height="72" viewBox="0 0 72 72" fill="none" xmlns="http://www.w3.org/2000/svg">
<path d="M46.5 42L61.5 57L57 61.5L42 46.5V44.13L41.19 43.29C37.6621 46.3316 33.1581 48.0033 28.5 48C23.3283 48 18.3684 45.9455 14.7114 42.2886C11.0545 38.6316 9 33.6717 9 28.5C9 23.3283 11.0545 18.3684 14.7114 14.7114C18.3684 11.0545 23.3283 9 28.5 9C33.6717 9 38.6316 11.0545 42.2886 14.7114C45.9455 18.3684 48 23.3283 48 28.5C48 33.33 46.23 37.77 43.29 41.19L44.13 42H46.5ZM28.5 13.5L26.85 13.59C26.13 15.15 25.02 17.79 24.21 21H32.79C31.98 17.79 30.87 15.15 30.15 13.59C29.61 13.5 29.07 13.5 28.5 13.5ZM41.49 21C39.7059 17.8788 36.8487 15.512 33.45 14.34C34.17 15.93 35.1 18.24 35.79 21H41.49ZM15.51 21H21.21C21.9 18.24 22.83 15.93 23.55 14.34C20.1513 15.512 17.2941 17.8788 15.51 21ZM13.5 28.5C13.5 30 13.74 31.59 14.19 33H20.61L20.25 28.5L20.61 24H14.19C13.74 25.41 13.5 27 13.5 28.5ZM42.81 33C43.26 31.59 43.5 30 43.5 28.5C43.5 27 43.26 25.41 42.81 24H36.39C36.8677 26.981 36.8677 30.019 36.39 33H42.81ZM23.61 24L23.25 28.5L23.61 33H33.39C33.8677 30.019 33.8677 26.981 33.39 24H23.61ZM28.5 43.5C29.04 43.5 29.58 43.5 30.09 43.41C30.84 41.85 31.98 39.21 32.79 36H24.21C25.02 39.21 26.16 41.85 26.91 43.41L28.5 43.5ZM41.49 36H35.79C35.1 38.76 34.17 41.07 33.45 42.66C36.8487 41.488 39.7059 39.1212 41.49 36ZM15.51 36C17.2941 39.1212 20.1513 41.488 23.55 42.66C22.83 41.07 21.9 38.76 21.21 36H15.51Z" fill="black"/>
</svg>
