<svg width="72" height="72" viewBox="0 0 72 72" fill="none" xmlns="http://www.w3.org/2000/svg">
<path d="M33 63C29.25 63 25.738 62.3 22.464 60.9C19.188 59.5 16.325 57.575 13.875 55.125C11.425 52.675 9.5 49.812 8.1 46.536C6.7 43.262 6 39.75 6 36C6 28.45 8.613 22.062 13.839 16.836C19.063 11.612 25.45 9 33 9C33.65 9 34.275 9.025 34.875 9.075C35.475 9.125 36.075 9.2 36.675 9.3C37.325 9.4 37.875 9.737 38.325 10.311C38.775 10.887 39 11.525 39 12.225C39 13.225 38.663 13.987 37.989 14.511C37.313 15.037 36.45 15.25 35.4 15.15C35 15.1 34.6 15.062 34.2 15.036C33.8 15.012 33.4 15 33 15C27.1 15 22.125 17.025 18.075 21.075C14.025 25.125 12 30.1 12 36C12 41.9 14.025 46.875 18.075 50.925C22.125 54.975 27.1 57 33 57C38.85 57 43.788 55 47.814 51C51.838 47 53.9 42.075 54 36.225C54 35.375 54.288 34.625 54.864 33.975C55.438 33.325 56.15 33 57 33C57.8 33 58.5 33.287 59.1 33.861C59.7 34.437 60 35.1 60 35.85V36C60 43.55 57.387 49.937 52.161 55.161C46.937 60.387 40.55 63 33 63ZM57 27C56.15 27 55.438 26.712 54.864 26.136C54.288 25.562 54 24.85 54 24V18H48C47.15 18 46.438 17.713 45.864 17.139C45.288 16.563 45 15.85 45 15C45 14.15 45.288 13.437 45.864 12.861C46.438 12.287 47.15 12 48 12H54V6C54 5.15 54.288 4.437 54.864 3.861C55.438 3.287 56.15 3 57 3C57.85 3 58.562 3.287 59.136 3.861C59.712 4.437 60 5.15 60 6V12H66C66.85 12 67.562 12.287 68.136 12.861C68.712 13.437 69 14.15 69 15C69 15.85 68.712 16.563 68.136 17.139C67.562 17.713 66.85 18 66 18H60V24C60 24.85 59.712 25.562 59.136 26.136C58.562 26.712 57.85 27 57 27ZM39.3 46.5L30.9 38.1C30.6 37.8 30.375 37.462 30.225 37.086C30.075 36.712 30 36.325 30 35.925V24C30 23.15 30.288 22.437 30.864 21.861C31.438 21.287 32.15 21 33 21C33.85 21 34.563 21.287 35.139 21.861C35.713 22.437 36 23.15 36 24V34.8L43.5 42.3C44.05 42.85 44.325 43.55 44.325 44.4C44.325 45.25 44.05 45.95 43.5 46.5C42.95 47.05 42.25 47.325 41.4 47.325C40.55 47.325 39.85 47.05 39.3 46.5Z" fill="black"/>
</svg>
